<svg width="413" height="510" viewBox="0 0 413 510" fill="none" xmlns="http://www.w3.org/2000/svg">
<path d="M201.325 0.124776C208.019 -0.25319 212.676 0.0694217 218.684 3.33942C222.456 4.99661 226.259 6.31284 230.236 7.38284C231.542 7.83992 231.542 7.83992 232.828 9.12577C234.481 9.54219 234.481 9.54219 236.043 9.7687C236.043 10.193 236.043 10.6174 236.043 11.0546C237.104 11.0546 238.165 11.0546 239.258 11.0546C239.258 11.4789 239.258 11.9032 239.258 12.3404C240.531 12.3404 241.804 12.3404 243.115 12.3404C243.115 12.7648 243.115 13.1891 243.115 13.6263C244.388 13.6263 245.661 13.6263 246.973 13.6263C246.973 14.0506 246.973 14.4749 246.973 14.9121C247.821 14.9121 248.67 14.9121 249.544 14.9121C249.544 15.3365 249.544 15.7608 249.544 16.198C250.395 16.152 250.395 16.152 251.262 16.1051C253.538 16.2039 254.765 16.6634 256.777 17.6848C259.68 19.0904 262.503 20.094 265.62 20.9069C266.903 21.3414 266.903 21.3414 268.189 22.6273C269.842 23.0437 269.842 23.0437 271.404 23.2702C271.404 23.6945 271.404 24.1189 271.404 24.5561C272.677 24.5561 273.95 24.5561 275.262 24.5561C275.262 24.9804 275.262 25.4047 275.262 25.8419C275.719 25.9289 276.176 26.016 276.648 26.1056C278.457 26.4809 280.229 26.9256 282.012 27.4091C282.602 27.5673 283.192 27.7256 283.8 27.8887C285.504 28.4002 287.123 29.0133 288.763 29.6995C288.763 30.1238 288.763 30.5482 288.763 30.9853C289.824 30.9853 290.885 30.9853 291.978 30.9853C291.978 31.4097 291.978 31.834 291.978 32.2712C292.431 32.3499 292.884 32.4287 293.351 32.5098C295.292 32.936 297.069 33.5453 298.929 34.2402C299.87 34.5895 299.87 34.5895 300.83 34.9459C301.304 35.1241 301.777 35.3023 302.265 35.4858C302.265 35.9102 302.265 36.3345 302.265 36.7717C303.12 36.7319 303.12 36.7319 303.992 36.6913C306.105 36.771 307.443 37.1664 309.337 38.0576C309.337 38.4819 309.337 38.9062 309.337 39.3434C309.801 39.3169 310.265 39.2904 310.743 39.263C312.685 39.3493 314.01 39.8267 315.766 40.6293C315.766 41.0536 315.766 41.4779 315.766 41.9151C316.31 41.8753 316.853 41.8356 317.414 41.7946C320.014 41.9364 321.774 42.7559 324.124 43.8439C324.975 44.0838 325.829 44.3136 326.696 44.4868C326.696 44.9112 326.696 45.3355 326.696 45.7727C327.147 45.8523 327.598 45.9318 328.062 46.0138C330.024 46.4403 331.874 47.0406 333.768 47.7015C333.768 48.1258 333.768 48.5502 333.768 48.9873C335.041 48.9873 336.314 48.9873 337.626 48.9873C337.626 49.4117 337.626 49.836 337.626 50.2732C338.076 50.2467 338.527 50.2202 338.992 50.1928C341.087 50.2839 342.741 50.8308 344.698 51.5591C344.698 51.9834 344.698 52.4077 344.698 52.8449C345.162 52.8184 345.626 52.7919 346.104 52.7645C348.046 52.8508 349.371 53.3282 351.127 54.1308C351.127 54.5551 351.127 54.9794 351.127 55.4166C351.976 55.4166 352.824 55.4166 353.699 55.4166C353.699 55.841 353.699 56.2653 353.699 56.7025C354.543 56.6565 354.543 56.6565 355.404 56.6096C357.71 56.7091 359.067 57.1933 361.133 58.1893C362.009 58.6032 362.009 58.6032 362.903 59.0256C364.629 59.9171 364.629 59.9171 366.321 60.9619C368.111 62.0014 369.659 62.2515 371.701 62.4888C371.701 62.9132 371.701 63.3375 371.701 63.7747C372.772 63.989 373.844 64.2033 374.915 64.4176C375.987 64.6319 377.059 64.8462 378.13 65.0606C378.13 65.4849 378.13 65.9092 378.13 66.3464C378.7 66.3199 379.27 66.2934 379.858 66.266C381.97 66.3458 383.309 66.7411 385.202 67.6323C385.202 68.0566 385.202 68.4809 385.202 68.9181C385.64 68.8783 386.077 68.8386 386.528 68.7976C388.49 68.9228 389.847 69.4733 391.614 70.2969C393.121 70.9329 394.638 71.3691 396.212 71.8113C398.563 72.4958 400.592 73.1943 402.561 74.7045C402.561 75.1288 402.561 75.5531 402.561 75.9903C403.41 75.9903 404.259 75.9903 405.133 75.9903C405.133 76.4147 405.133 76.839 405.133 77.2762C405.637 77.369 406.141 77.4618 406.66 77.5575C408.348 77.9191 408.348 77.9191 409.634 78.5621C409.634 78.9864 409.634 79.4107 409.634 79.8479C410.058 79.8479 410.482 79.8479 410.919 79.8479C412.027 82.2574 412.372 84.1559 412.393 86.8001C412.402 87.5474 412.411 88.2946 412.42 89.0645C412.424 89.8785 412.427 90.6926 412.431 91.5313C412.439 92.4017 412.447 93.2721 412.457 94.1425C412.48 96.5016 412.495 98.8607 412.508 101.22C412.52 103.19 412.536 105.16 412.552 107.13C412.589 111.777 412.62 116.424 412.648 121.071C412.676 125.865 412.713 130.659 412.755 135.453C412.791 139.571 412.822 143.688 412.849 147.806C412.864 150.264 412.882 152.723 412.904 155.182C412.925 157.493 412.939 159.803 412.949 162.114C412.955 163.367 412.968 164.619 412.982 165.872C412.984 166.99 412.984 166.99 412.987 168.131C412.993 169.102 412.993 169.102 413 170.094C412.845 171.828 412.451 172.877 411.562 174.358C410.035 174.198 410.035 174.198 408.348 173.715C407.504 172.389 407.504 172.389 407.062 171.144C406.638 171.144 406.213 171.144 405.776 171.144C405.776 170.295 405.776 169.446 405.776 168.572C405.14 168.36 404.503 168.148 403.847 167.929C403.847 167.293 403.847 166.656 403.847 166C403.423 166 402.999 166 402.561 166C401.276 164.072 401.276 164.072 401.276 162.143C400.851 162.143 400.427 162.143 399.99 162.143C397.418 157.803 397.418 157.803 397.418 156.356C396.994 156.356 396.569 156.356 396.132 156.356C396.132 155.932 396.132 155.508 396.132 155.071C395.708 155.071 395.283 155.071 394.846 155.071C394.846 154.222 394.846 153.373 394.846 152.499C394.422 152.499 393.998 152.499 393.56 152.499C393.56 152.074 393.56 151.65 393.56 151.213C393.136 151.213 392.712 151.213 392.275 151.213C392.275 150.789 392.275 150.364 392.275 149.927C391.85 149.927 391.426 149.927 390.989 149.927C390.989 149.503 390.989 149.078 390.989 148.641C390.372 148.383 390.372 148.383 389.743 148.119C388.417 147.355 388.417 147.355 387.774 145.427C387.35 145.427 386.925 145.427 386.488 145.427C386.488 145.002 386.488 144.578 386.488 144.141C386.064 144.141 385.639 144.141 385.202 144.141C385.202 143.716 385.202 143.292 385.202 142.855C384.778 142.855 384.354 142.855 383.916 142.855C383.916 142.431 383.916 142.006 383.916 141.569C383.492 141.569 383.068 141.569 382.631 141.569C382.631 141.145 382.631 140.72 382.631 140.283C382.206 140.283 381.782 140.283 381.345 140.283C381.345 139.859 381.345 139.435 381.345 138.997C380.92 138.997 380.496 138.997 380.059 138.997C380.059 138.573 380.059 138.149 380.059 137.711C379.635 137.711 379.21 137.711 378.773 137.711C378.773 137.287 378.773 136.863 378.773 136.426C378.349 136.426 377.924 136.426 377.487 136.426C377.487 136.001 377.487 135.577 377.487 135.14C377.063 135.14 376.638 135.14 376.201 135.14C376.201 134.715 376.201 134.291 376.201 133.854C375.565 133.642 374.928 133.43 374.273 133.211C374.273 132.787 374.273 132.362 374.273 131.925C373.424 131.501 372.575 131.076 371.701 130.639C371.701 130.215 371.701 129.791 371.701 129.353C371.276 129.353 370.852 129.353 370.415 129.353C370.415 128.929 370.415 128.505 370.415 128.068C369.991 128.068 369.566 128.068 369.129 128.068C367.843 126.139 367.843 126.139 367.843 124.21C367.419 124.21 366.995 124.21 366.557 124.21C366.557 123.149 366.557 122.088 366.557 120.995C366.133 120.995 365.709 120.995 365.272 120.995C365.24 120.368 365.209 119.741 365.176 119.094C365.128 118.276 365.08 117.458 365.03 116.615C364.963 115.396 364.963 115.396 364.895 114.152C364.782 111.912 364.782 111.912 363.343 110.066C362.019 109.6 362.019 109.6 360.771 109.423C360.771 108.998 360.771 108.574 360.771 108.137C360.319 108.168 359.868 108.2 359.402 108.232C357.216 108.119 355.735 107.498 353.739 106.61C351.182 105.482 348.647 104.486 345.984 103.636C345.984 103.212 345.984 102.788 345.984 102.35C345.135 102.35 344.286 102.35 343.412 102.35C343.412 101.926 343.412 101.502 343.412 101.065C342.563 101.065 341.715 101.065 340.84 101.065C340.84 100.64 340.84 100.216 340.84 99.7787C340.283 99.8185 339.726 99.8583 339.153 99.8992C336.672 99.7614 335.299 99.0062 333.125 97.8499C331.366 97.4005 331.366 97.4005 329.91 97.207C329.91 96.7826 329.91 96.3583 329.91 95.9211C329.446 95.8333 328.981 95.7454 328.502 95.6549C324.252 94.7683 320.221 93.5274 316.409 91.4206C316.409 90.9963 316.409 90.572 316.409 90.1348C315.136 90.1348 313.863 90.1348 312.551 90.1348C312.551 89.7104 312.551 89.2861 312.551 88.8489C311.981 88.8754 311.411 88.9019 310.824 88.9293C308.711 88.8496 307.373 88.4542 305.479 87.5631C305.479 87.1387 305.479 86.7144 305.479 86.2772C304.206 86.2772 302.933 86.2772 301.622 86.2772C301.622 85.8529 301.622 85.4285 301.622 84.9913C300.773 84.9913 299.924 84.9913 299.05 84.9913C299.05 84.567 299.05 84.1427 299.05 83.7055C298.48 83.732 297.909 83.7585 297.322 83.7858C295.21 83.7061 293.871 83.3108 291.978 82.4196C291.978 81.9953 291.978 81.571 291.978 81.1338C291.528 81.1727 291.078 81.2117 290.614 81.2518C288.308 81.1047 286.895 80.3355 284.865 79.2452C281.797 77.5982 281.797 77.5982 278.476 76.6333C278.476 76.2089 278.476 75.7846 278.476 75.3474C277.203 75.3474 275.93 75.3474 274.619 75.3474C274.619 74.9231 274.619 74.4987 274.619 74.0616C273.558 74.0616 272.497 74.0616 271.404 74.0616C271.404 73.6372 271.404 73.2129 271.404 72.7757C270.94 72.8022 270.476 72.8287 269.998 72.8561C268.056 72.7698 266.73 72.2924 264.975 71.4898C264.975 71.0655 264.975 70.6412 264.975 70.204C263.702 70.204 262.429 70.204 261.117 70.204C261.117 69.7796 261.117 69.3553 261.117 68.9181C260.666 68.9579 260.215 68.9977 259.751 69.0387C257.459 68.8892 256.065 68.0611 254.045 66.9893C252.762 66.553 251.476 66.1237 250.187 65.7035C249.321 65.2932 248.459 64.872 247.616 64.4176C247.616 63.9933 247.616 63.569 247.616 63.1318C246.343 63.1318 245.07 63.1318 243.758 63.1318C243.758 62.7074 243.758 62.2831 243.758 61.8459C243.188 61.8724 242.618 61.899 242.03 61.9263C239.918 61.8466 238.58 61.4512 236.686 60.5601C236.686 60.1357 236.686 59.7114 236.686 59.2742C236.228 59.3065 235.771 59.3388 235.3 59.3721C233.162 59.2576 231.846 58.6544 229.935 57.7071C227.67 56.5902 225.685 55.8108 223.184 55.4166C223.184 54.9923 223.184 54.568 223.184 54.1308C222.724 54.1639 222.264 54.1971 221.79 54.2312C219.666 54.114 218.422 53.5198 216.554 52.5234C215.986 52.2251 215.419 51.9267 214.834 51.6193C214.407 51.3873 213.98 51.1552 213.54 50.9161C213.54 50.4918 213.54 50.0675 213.54 49.6303C212.267 49.6303 210.994 49.6303 209.683 49.6303C209.683 49.2059 209.683 48.7816 209.683 48.3444C207.349 48.3444 205.015 48.3444 202.611 48.3444C202.611 48.7687 202.611 49.1931 202.611 49.6303C201.55 49.6303 200.489 49.6303 199.396 49.6303C199.396 50.0546 199.396 50.4789 199.396 50.9161C198.123 51.1283 196.85 51.3405 195.538 51.5591C195.538 51.9834 195.538 52.4077 195.538 52.8449C195.082 52.9767 194.625 53.1085 194.155 53.2442C193.564 53.4174 192.973 53.5907 192.364 53.7691C191.775 53.9407 191.185 54.1122 190.578 54.289C189.148 54.6389 189.148 54.6389 188.466 55.4166C187.181 55.4429 185.894 55.444 184.609 55.4166C184.609 55.841 184.609 56.2653 184.609 56.7025C183.76 56.7025 182.911 56.7025 182.037 56.7025C182.037 57.1268 182.037 57.5511 182.037 57.9883C180.764 57.9883 179.491 57.9883 178.179 57.9883C178.179 58.4127 178.179 58.837 178.179 59.2742C177.331 59.2742 176.482 59.2742 175.608 59.2742C175.608 59.6985 175.608 60.1229 175.608 60.5601C173.145 61.7188 171.248 61.9721 168.535 61.8459C168.535 62.2702 168.535 62.6946 168.535 63.1318C167.687 63.1318 166.838 63.1318 165.964 63.1318C165.964 63.5561 165.964 63.9804 165.964 64.4176C161.939 66.3535 157.998 68.0187 153.683 69.1894C152.468 69.4548 152.468 69.4548 151.819 70.204C150.748 70.2301 149.676 70.2314 148.605 70.204C148.605 70.6283 148.605 71.0526 148.605 71.4898C147.544 71.4898 146.483 71.4898 145.39 71.4898C145.39 71.9142 145.39 72.3385 145.39 72.7757C144.117 72.7757 142.844 72.7757 141.532 72.7757C141.532 73.2 141.532 73.6244 141.532 74.0616C139.07 75.2203 137.173 75.4736 134.46 75.3474C134.46 75.7717 134.46 76.1961 134.46 76.6333C133.187 76.6333 131.914 76.6333 130.603 76.6333C130.603 77.0576 130.603 77.4819 130.603 77.9191C128.956 78.5517 127.309 79.1807 125.66 79.8077C125.196 79.9863 124.733 80.1649 124.255 80.3489C121.883 81.248 119.621 82.027 117.101 82.4196C117.101 82.844 117.101 83.2683 117.101 83.7055C114.452 84.5364 112.171 85.1601 109.386 84.9913C109.386 85.4157 109.386 85.84 109.386 86.2772C108.325 86.2772 107.264 86.2772 106.171 86.2772C106.171 86.7015 106.171 87.1259 106.171 87.5631C104.898 87.5631 103.625 87.5631 102.314 87.5631C102.314 87.9874 102.314 88.4117 102.314 88.8489C101.872 88.9732 101.43 89.0975 100.975 89.2256C100.396 89.393 99.8165 89.5604 99.2197 89.7329C98.6453 89.897 98.071 90.0611 97.4792 90.2302C95.7529 90.7473 95.7529 90.7473 93.9557 92.0636C93.107 92.0636 92.2584 92.0636 91.384 92.0636C91.384 92.4879 91.384 92.9122 91.384 93.3494C90.7417 93.574 90.0994 93.7986 89.4376 94.03C88.5996 94.3254 87.7616 94.6209 86.9237 94.9165C86.2878 95.1384 86.2878 95.1384 85.6391 95.3648C83.5253 95.998 83.5253 95.998 81.7401 97.207C80.4545 97.2332 79.1681 97.2343 77.8825 97.207C77.8825 97.6313 77.8825 98.0556 77.8825 98.4928C77.0338 98.4928 76.1852 98.4928 75.3108 98.4928C75.3108 98.9172 75.3108 99.3415 75.3108 99.7787C74.0378 99.7787 72.7648 99.7787 71.4532 99.7787C71.4532 100.203 71.4532 100.627 71.4532 101.065C69.2859 102.028 68.1071 102.35 65.6668 102.35C65.6668 102.775 65.6668 103.199 65.6668 103.636C65.1174 103.814 64.5679 103.993 64.0018 104.176C63.2915 104.409 62.5812 104.642 61.8495 104.882C61.1409 105.113 60.4323 105.344 59.7022 105.583C58.0281 106.04 58.0281 106.04 57.3088 106.851C56.0232 106.877 54.7368 106.878 53.4512 106.851C53.4512 107.275 53.4512 107.7 53.4512 108.137C52.6025 108.137 51.7539 108.137 50.8795 108.137C50.8795 108.561 50.8795 108.985 50.8795 109.423C50.0308 109.423 49.1822 109.423 48.3078 109.423C48.3078 109.847 48.3078 110.271 48.3078 110.708C47.8834 110.708 47.4591 110.708 47.0219 110.708C47.0892 129.863 47.1597 149.018 47.2348 168.173C47.2437 170.432 47.2525 172.691 47.2613 174.95C47.263 175.4 47.2648 175.85 47.2666 176.313C47.295 183.605 47.3211 190.897 47.3464 198.189C47.3724 205.665 47.4008 213.142 47.4314 220.619C47.4485 224.82 47.4645 229.022 47.4778 233.224C47.4904 237.174 47.5059 241.124 47.5237 245.073C47.5298 246.528 47.5347 247.982 47.5385 249.436C47.5438 251.413 47.5529 253.389 47.5631 255.365C47.5638 255.948 47.5644 256.532 47.565 257.133C47.3297 259.668 47.3297 259.668 48.3078 261.797C48.4818 264.137 48.5948 266.472 48.697 268.816C48.5823 271.296 48.5823 271.296 49.5936 273.369C49.8009 275.027 49.9232 276.686 50.0557 278.352C50.0835 279.777 50.0835 279.777 50.8795 280.442C51.0938 281.942 51.3081 283.442 51.5224 284.942C51.7346 285.154 51.9468 285.366 52.1653 285.585C52.1916 286.871 52.1927 288.157 52.1653 289.443C52.5897 289.443 53.014 289.443 53.4512 289.443C53.6145 289.947 53.7777 290.452 53.946 290.972C55.3832 295.413 55.3832 295.413 57.148 299.729C57.9517 301.658 57.9517 301.658 57.9517 304.23C58.376 304.23 58.8004 304.23 59.2376 304.23C59.2376 305.079 59.2376 305.927 59.2376 306.802C59.6619 306.802 60.0862 306.802 60.5234 306.802C61.8093 308.73 61.8093 308.73 61.8093 310.659C62.2336 310.659 62.6579 310.659 63.0951 310.659C63.0951 311.508 63.0951 312.357 63.0951 313.231C63.5195 313.231 63.9438 313.231 64.381 313.231C66.3098 316.05 66.3098 316.05 66.3098 317.731C66.7341 317.731 67.1584 317.731 67.5956 317.731C67.5956 318.156 67.5956 318.58 67.5956 319.017C68.02 319.017 68.4443 319.017 68.8815 319.017C68.8815 319.442 68.8815 319.866 68.8815 320.303C69.3058 320.303 69.7302 320.303 70.1673 320.303C71.4532 322.232 71.4532 322.232 71.4532 324.161C71.8775 324.161 72.3019 324.161 72.7391 324.161C72.7391 324.585 72.7391 325.009 72.7391 325.447C73.1369 325.606 73.5347 325.765 73.9445 325.929C75.5362 326.865 75.9224 327.618 76.5966 329.304C77.021 329.304 77.4453 329.304 77.8825 329.304C77.8825 329.941 77.8825 330.577 77.8825 331.233C78.7312 331.233 79.5798 331.233 80.4542 331.233C80.4542 331.657 80.4542 332.082 80.4542 332.519C81.515 332.943 82.5759 333.367 83.6688 333.805C83.6688 334.229 83.6688 334.653 83.6688 335.091C84.0932 335.091 84.5175 335.091 84.9547 335.091C84.9547 335.515 84.9547 335.939 84.9547 336.376C85.3525 336.469 85.7503 336.562 86.1602 336.658C87.5264 337.019 87.5264 337.019 88.8123 337.662C88.8123 338.087 88.8123 338.511 88.8123 338.948C89.167 339.009 89.5217 339.071 89.8872 339.134C91.7713 339.709 93.1292 340.657 94.7594 341.761C97.6517 343.652 100.317 344.967 103.6 346.02C103.6 346.445 103.6 346.869 103.6 347.306C104.06 347.392 104.52 347.477 104.993 347.565C106.777 347.941 108.488 348.419 110.23 348.954C111.081 349.213 111.081 349.213 111.95 349.479C112.377 349.61 112.804 349.742 113.244 349.878C113.244 350.302 113.244 350.727 113.244 351.164C114.941 351.164 116.638 351.164 118.387 351.164C118.387 351.588 118.387 352.012 118.387 352.45C118.844 352.442 119.3 352.435 119.771 352.427C120.657 352.418 120.657 352.418 121.561 352.409C122.151 352.402 122.74 352.394 123.347 352.387C124.816 352.45 124.816 352.45 125.459 353.093C127.136 353.229 128.802 353.335 130.482 353.414C135.426 353.651 135.426 353.651 136.992 354.063C138.51 354.424 139.872 354.462 141.432 354.464C142.021 354.465 142.61 354.465 143.218 354.466C143.828 354.464 144.439 354.461 145.069 354.459C145.679 354.461 146.29 354.464 146.919 354.466C147.509 354.465 148.098 354.465 148.705 354.464C149.241 354.463 149.777 354.462 150.329 354.462C151.775 354.381 152.992 354.09 154.391 353.735C155.45 353.651 156.511 353.592 157.573 353.555C158.171 353.531 158.769 353.507 159.385 353.482C160.644 353.436 161.903 353.391 163.162 353.346C164.055 353.31 164.055 353.31 164.967 353.273C165.785 353.244 165.785 353.244 166.621 353.214C167.893 353.229 167.893 353.229 168.535 352.45C170.529 352.241 172.523 352.12 174.523 351.987C176.197 351.996 176.197 351.996 176.893 351.164C177.87 351.118 178.849 351.11 179.827 351.124C180.358 351.129 180.889 351.135 181.437 351.141C181.847 351.149 182.257 351.156 182.68 351.164C182.68 350.739 182.68 350.315 182.68 349.878C183.953 349.878 185.226 349.878 186.537 349.878C186.537 349.454 186.537 349.029 186.537 348.592C189.454 347.659 191.797 347.155 194.895 347.306C194.895 346.882 194.895 346.458 194.895 346.02C196.168 346.02 197.441 346.02 198.753 346.02C198.753 345.596 198.753 345.172 198.753 344.734C199.602 344.734 200.45 344.734 201.325 344.734C201.249 341.999 201.169 339.264 201.085 336.529C201.057 335.598 201.031 334.667 201.005 333.736C200.968 332.4 200.927 331.064 200.885 329.729C200.862 328.924 200.838 328.119 200.814 327.29C200.889 325.513 200.889 325.513 200.039 324.804C199.993 323.827 199.985 322.848 199.999 321.87C200.005 321.339 200.01 320.808 200.016 320.26C200.027 319.645 200.027 319.645 200.039 319.017C200.463 319.017 200.888 319.017 201.325 319.017C201.325 318.593 201.325 318.169 201.325 317.731C203.022 317.731 204.719 317.731 206.468 317.731C206.468 318.156 206.468 318.58 206.468 319.017C207.317 319.017 208.166 319.017 209.04 319.017C209.04 319.442 209.04 319.866 209.04 320.303C209.73 320.263 209.73 320.263 210.434 320.223C212.453 320.312 213.818 320.799 215.67 321.589C216.238 321.828 216.806 322.066 217.39 322.312C217.817 322.498 218.244 322.684 218.684 322.875C218.684 323.299 218.684 323.724 218.684 324.161C219.154 324.25 219.624 324.34 220.108 324.432C225.678 325.588 230.84 327.685 236.043 329.947C236.043 330.371 236.043 330.796 236.043 331.233C236.898 331.193 236.898 331.193 237.771 331.153C239.883 331.232 241.221 331.628 243.115 332.519C243.115 332.943 243.115 333.367 243.115 333.805C244.388 333.805 245.661 333.805 246.973 333.805C246.973 334.229 246.973 334.653 246.973 335.091C248.044 335.305 249.116 335.519 250.187 335.733C251.259 335.948 252.33 336.162 253.402 336.376C253.402 336.801 253.402 337.225 253.402 337.662C254.463 337.662 255.524 337.662 256.617 337.662C256.617 338.087 256.617 338.511 256.617 338.948C257.372 338.849 257.372 338.849 258.144 338.747C260.981 338.992 262.84 339.995 265.319 341.334C266.887 342.154 268.466 342.818 270.118 343.449C270.118 343.873 270.118 344.297 270.118 344.734C271.391 344.734 272.664 344.734 273.976 344.734C273.976 345.159 273.976 345.583 273.976 346.02C274.48 346.113 274.983 346.206 275.503 346.302C277.19 346.663 277.19 346.663 278.476 347.306C279.087 349.418 279.184 350.326 278.476 352.45C275.611 355.021 275.611 355.021 273.976 355.021C273.976 355.446 273.976 355.87 273.976 356.307C273.551 356.307 273.127 356.307 272.69 356.307C272.69 356.731 272.69 357.156 272.69 357.593C272.265 357.593 271.841 357.593 271.404 357.593C271.298 358.031 271.192 358.468 271.082 358.919C269.432 362.15 266.499 364.8 263.046 365.951C263.046 366.375 263.046 366.8 263.046 367.237C262.622 367.237 262.197 367.237 261.76 367.237C261.76 367.661 261.76 368.086 261.76 368.523C259.831 369.809 259.831 369.809 257.902 369.809C257.902 370.233 257.902 370.657 257.902 371.095C257.478 371.095 257.054 371.095 256.617 371.095C256.451 371.469 256.285 371.844 256.114 372.23C255.268 373.782 254.334 374.835 253.08 376.077C252.689 376.472 252.298 376.866 251.895 377.273C250.83 378.167 250.83 378.167 249.544 378.167C249.544 378.591 249.544 379.015 249.544 379.453C249.12 379.453 248.696 379.453 248.259 379.453C248.259 379.877 248.259 380.301 248.259 380.738C246.33 382.024 246.33 382.024 244.401 382.024C244.401 382.449 244.401 382.873 244.401 383.31C243.977 383.31 243.552 383.31 243.115 383.31C243.115 383.734 243.115 384.159 243.115 384.596C242.691 384.596 242.266 384.596 241.829 384.596C241.571 385.173 241.571 385.173 241.307 385.761C240.544 387.167 239.839 388.076 238.615 389.097C238.19 389.097 237.766 389.097 237.329 389.097C237.329 389.521 237.329 389.945 237.329 390.382C236.904 390.382 236.48 390.382 236.043 390.382C236.043 390.807 236.043 391.231 236.043 391.668C235.619 391.668 235.194 391.668 234.757 391.668C234.757 392.093 234.757 392.517 234.757 392.954C234.333 392.954 233.908 392.954 233.471 392.954C233.471 393.378 233.471 393.803 233.471 394.24C232.623 394.24 231.774 394.24 230.899 394.24C230.899 394.664 230.899 395.089 230.899 395.526C230.475 395.526 230.051 395.526 229.614 395.526C229.614 395.95 229.614 396.374 229.614 396.812C229.189 396.812 228.765 396.812 228.328 396.812C228.328 397.236 228.328 397.66 228.328 398.098C227.903 398.098 227.479 398.098 227.042 398.098C227.042 398.522 227.042 398.946 227.042 399.383C225.395 400.86 224.805 401.312 222.541 401.312C222.541 401.736 222.541 402.161 222.541 402.598C222.117 402.598 221.693 402.598 221.256 402.598C221.256 403.022 221.256 403.447 221.256 403.884C220.831 403.884 220.407 403.884 219.97 403.884C219.97 404.308 219.97 404.733 219.97 405.17C219.545 405.17 219.121 405.17 218.684 405.17C218.684 405.594 218.684 406.018 218.684 406.456C218.259 406.456 217.835 406.456 217.398 406.456C217.398 406.88 217.398 407.304 217.398 407.741C216.974 407.741 216.549 407.741 216.112 407.741C216.112 408.166 216.112 408.59 216.112 409.027C215.688 409.027 215.263 409.027 214.826 409.027C214.826 409.452 214.826 409.876 214.826 410.313C214.402 410.313 213.978 410.313 213.54 410.313C213.54 410.737 213.54 411.162 213.54 411.599C213.116 411.599 212.692 411.599 212.255 411.599C211.996 412.216 211.996 412.216 211.732 412.845C210.969 414.171 210.969 414.171 209.04 414.814C209.04 415.238 209.04 415.662 209.04 416.1C207.979 415.887 206.918 415.675 205.825 415.457C205.613 414.608 205.401 413.759 205.182 412.885C204.758 412.885 204.334 412.885 203.896 412.885C203.896 405.459 203.896 398.033 203.896 390.382C199.759 391.337 199.759 391.337 195.538 392.311C194.425 392.55 193.311 392.789 192.163 393.034C189.896 393.34 189.896 393.34 189.109 394.24C187.283 394.448 185.457 394.57 183.624 394.702C182.075 394.712 182.075 394.712 181.394 395.526C179.568 395.734 177.742 395.856 175.909 395.988C174.359 395.998 174.359 395.998 173.679 396.812C172.166 396.858 170.652 396.865 169.138 396.852C168.309 396.846 167.479 396.84 166.624 396.834C165.661 396.823 165.661 396.823 164.678 396.812C164.678 397.236 164.678 397.66 164.678 398.098C163.989 398.136 163.3 398.175 162.591 398.216C161.693 398.27 160.794 398.324 159.896 398.379C159.441 398.404 158.987 398.429 158.519 398.455C156.264 398.404 156.264 398.404 154.391 399.383C152.07 399.638 149.731 399.691 147.399 399.785C146.708 399.814 146.017 399.842 145.306 399.872C140.833 400.028 136.398 400.025 131.929 399.785C131.412 399.758 130.895 399.73 130.363 399.701C126.835 399.474 126.835 399.474 126.102 398.74C124.819 398.606 123.532 398.504 122.245 398.419C118.458 398.169 118.458 398.169 117.744 397.455C116.461 397.32 115.174 397.218 113.886 397.133C110.1 396.883 110.1 396.883 109.386 396.169C108.52 396.02 107.648 395.904 106.774 395.807C105.939 395.714 105.103 395.621 104.243 395.526C104.243 395.101 104.243 394.677 104.243 394.24C102.545 394.24 100.848 394.24 99.0991 394.24C99.0991 393.816 99.0991 393.391 99.0991 392.954C98.2438 392.994 98.2438 392.994 97.3713 393.034C95.2591 392.955 93.9207 392.559 92.0269 391.668C92.0269 391.244 92.0269 390.82 92.0269 390.382C91.562 390.414 91.097 390.445 90.618 390.478C88.5582 390.369 87.4374 389.839 85.6378 388.855C83.3054 387.625 81.0692 386.618 78.5254 385.882C78.5254 385.458 78.5254 385.033 78.5254 384.596C77.6767 384.596 76.8281 384.596 75.9537 384.596C75.9537 384.172 75.9537 383.747 75.9537 383.31C75.3172 383.31 74.6807 383.31 74.0249 383.31C74.0249 382.886 74.0249 382.461 74.0249 382.024C73.1763 382.024 72.3276 382.024 71.4532 382.024C71.4532 381.6 71.4532 381.176 71.4532 380.738C70.6045 380.738 69.7559 380.738 68.8815 380.738C68.8815 380.314 68.8815 379.89 68.8815 379.453C68.4572 379.453 68.0328 379.453 67.5956 379.453C67.5956 379.028 67.5956 378.604 67.5956 378.167C66.747 378.167 65.8983 378.167 65.0239 378.167C65.0239 377.742 65.0239 377.318 65.0239 376.881C64.6626 376.814 64.3012 376.747 63.9289 376.677C62.1797 376.157 60.9139 375.362 59.3983 374.349C58.6275 373.843 58.6275 373.843 57.8412 373.327C57.4533 373.015 57.0655 372.702 56.6658 372.38C56.6658 371.956 56.6658 371.532 56.6658 371.095C56.2415 371.095 55.8172 371.095 55.38 371.095C55.38 370.67 55.38 370.246 55.38 369.809C54.9557 369.809 54.5313 369.809 54.0941 369.809C54.0941 369.384 54.0941 368.96 54.0941 368.523C53.2455 368.523 52.3968 368.523 51.5224 368.523C51.5224 368.098 51.5224 367.674 51.5224 367.237C51.0981 367.237 50.6738 367.237 50.2366 367.237C50.2366 366.813 50.2366 366.388 50.2366 365.951C49.1757 365.527 48.1149 365.102 47.0219 364.665C47.0219 364.241 47.0219 363.817 47.0219 363.379C46.5976 363.379 46.1733 363.379 45.7361 363.379C45.7361 362.955 45.7361 362.531 45.7361 362.094C45.3117 362.094 44.8874 362.094 44.4502 362.094C44.4502 361.669 44.4502 361.245 44.4502 360.808C44.0259 360.808 43.6015 360.808 43.1643 360.808C42.74 359.747 42.3157 358.686 41.8785 357.593C41.4542 357.593 41.0298 357.593 40.5926 357.593C40.5926 357.169 40.5926 356.744 40.5926 356.307C40.1683 356.307 39.744 356.307 39.3068 356.307C39.3068 355.883 39.3068 355.459 39.3068 355.021C38.9487 354.862 38.5907 354.703 38.2218 354.539C34.2146 352.373 31.8652 349.298 29.6628 345.377C29.6628 344.953 29.6628 344.529 29.6628 344.092C29.2385 344.092 28.8142 344.092 28.377 344.092C28.377 343.667 28.377 343.243 28.377 342.806C27.9527 342.806 27.5283 342.806 27.0911 342.806C27.0911 341.957 27.0911 341.108 27.0911 340.234C26.6668 340.234 26.2425 340.234 25.8053 340.234C25.8053 339.597 25.8053 338.961 25.8053 338.305C25.3809 338.305 24.9566 338.305 24.5194 338.305C23.6906 337.27 23.6906 337.27 22.8317 335.894C22.545 335.447 22.2582 334.999 21.9628 334.538C21.3048 333.162 21.3048 333.162 21.3048 330.59C20.8804 330.59 20.4561 330.59 20.0189 330.59C20.0189 330.166 20.0189 329.741 20.0189 329.304C19.5946 329.304 19.1703 329.304 18.7331 329.304C18.7331 328.456 18.7331 327.607 18.7331 326.732C18.3087 326.732 17.8844 326.732 17.4472 326.732C17.4472 325.884 17.4472 325.035 17.4472 324.161C17.0229 324.161 16.5985 324.161 16.1614 324.161C15.7257 323.159 15.2988 322.154 14.8755 321.147C14.6368 320.588 14.3981 320.028 14.1522 319.452C13.5776 317.695 13.4839 316.351 13.5896 314.517C13.1653 314.517 12.741 314.517 12.3038 314.517C12.3038 313.668 12.3038 312.819 12.3038 311.945C11.8794 311.945 11.4551 311.945 11.0179 311.945C9.59156 308.973 8.84302 306.951 9.08914 303.587C8.6648 303.587 8.24047 303.587 7.80328 303.587C7.67151 302.945 7.53973 302.302 7.40396 301.641C7.23075 300.811 7.05753 299.981 6.87907 299.127C6.70751 298.299 6.53596 297.471 6.3592 296.618C6.08549 294.685 6.08549 294.685 5.23157 293.943C5.14082 292.226 5.20426 290.52 5.23157 288.8C4.80723 288.8 4.3829 288.8 3.94571 288.8C3.88728 288.115 3.88728 288.115 3.82767 287.416C3.7738 286.825 3.71993 286.234 3.66443 285.625C3.61222 285.036 3.56 284.447 3.50621 283.84C3.4568 282.395 3.4568 282.395 2.65985 281.727C2.6131 280.215 2.60603 278.7 2.61967 277.187C2.62547 276.357 2.63127 275.528 2.63725 274.673C2.64471 274.031 2.65217 273.388 2.65985 272.726C2.23552 272.726 1.81119 272.726 1.374 272.726C1.36737 272.207 1.36075 271.688 1.35392 271.153C1.29096 266.262 1.22505 261.371 1.15583 256.48C1.12035 253.965 1.086 251.451 1.05426 248.936C1.02359 246.51 0.989927 244.084 0.954193 241.658C0.941079 240.732 0.929053 239.806 0.918111 238.879C0.902616 237.583 0.882942 236.287 0.863075 234.991C0.853081 234.253 0.843078 233.515 0.832781 232.755C0.808124 230.886 0.808134 230.886 0.0881392 229.007C0.0291731 227.968 0.00694866 226.926 0.00649777 225.885C0.00468482 225.242 0.00287188 224.598 0.001004 223.935C0.00230543 223.23 0.00360687 222.525 0.00494774 221.798C0.00382112 221.054 0.00269451 220.311 0.00153375 219.545C-0.00130374 217.078 0.000581486 214.612 0.00275023 212.146C0.00231724 210.432 0.00169432 208.719 0.000886273 207.006C-0.000284153 203.41 0.00125904 199.813 0.00431988 196.217C0.00780869 192.07 0.00669012 187.923 0.00314264 183.776C0.000214921 180.21 -0.000182785 176.644 0.00149451 173.078C0.00249261 170.951 0.00239374 168.824 0.000513481 166.697C-0.00112595 164.319 0.00137758 161.942 0.00494774 159.564C0.00364631 158.867 0.00234487 158.169 0.001004 157.451C0.0104904 154.027 0.138375 150.688 0.585012 147.291C0.809924 145.41 0.815973 143.542 0.811434 141.649C0.813091 140.948 0.814749 140.247 0.816457 139.525C0.810801 137.66 0.810801 137.66 0.0881392 135.783C0.0273725 134.396 0.00588309 133.008 0.00494774 131.62C0.00382112 131.2 0.00269451 130.781 0.00153375 130.349C-0.00129391 128.964 0.000576818 127.579 0.00275023 126.194C0.00231724 125.233 0.00169336 124.271 0.000886273 123.31C-6.14489e-05 121.296 0.0013163 119.282 0.00431988 117.268C0.00798906 114.682 0.00587078 112.095 0.00202427 109.509C-0.000293527 107.524 0.000434198 105.54 0.00210275 103.555C0.00253282 102.601 0.00200613 101.647 0.000513481 100.693C-0.001111 99.363 0.00135571 98.0331 0.00494774 96.7031C0.00545925 95.9451 0.00597076 95.1871 0.00649777 94.4062C0.0881392 92.7065 0.0881392 92.7065 0.731068 92.0636C0.831497 91.1549 0.892161 90.2418 0.934494 89.3286C0.961429 88.7795 0.988365 88.2305 1.01612 87.6648C1.04139 87.0875 1.06667 86.5103 1.09271 85.9155C1.13436 85.046 1.13436 85.046 1.17685 84.1588C1.24527 82.7219 1.31086 81.285 1.374 79.8479C1.79833 79.8479 2.22266 79.8479 2.65985 79.8479C2.65985 79.4236 2.65985 78.9992 2.65985 78.5621C3.08419 78.5621 3.50852 78.5621 3.94571 78.5621C3.94571 78.1377 3.94571 77.7134 3.94571 77.2762C5.8745 75.9903 5.8745 75.9903 7.48182 75.468C9.49474 74.785 11.3422 73.9895 13.2682 73.0972C19.5581 70.204 19.5581 70.204 23.2336 70.204C23.2336 69.7796 23.2336 69.3553 23.2336 68.9181C24.5066 68.9181 25.7796 68.9181 27.0911 68.9181C27.0911 68.4938 27.0911 68.0695 27.0911 67.6323C28.3641 67.6323 29.6371 67.6323 30.9487 67.6323C30.9487 67.2079 30.9487 66.7836 30.9487 66.3464C31.7974 66.3464 32.646 66.3464 33.5204 66.3464C33.5204 65.9221 33.5204 65.4977 33.5204 65.0606C36.013 64.2936 37.9671 63.7747 40.5926 63.7747C40.5926 63.3504 40.5926 62.926 40.5926 62.4888C41.8656 62.4888 43.1386 62.4888 44.4502 62.4888C44.4502 62.0645 44.4502 61.6402 44.4502 61.203C45.6659 60.6601 46.8856 60.126 48.1069 59.5957C49.125 59.1481 49.125 59.1481 50.1637 58.6915C52.0729 58.0208 53.3817 57.84 55.38 57.9883C55.38 57.564 55.38 57.1397 55.38 56.7025C57.6352 55.6715 59.3299 55.2749 61.8093 55.4166C61.8093 54.9923 61.8093 54.568 61.8093 54.1308C62.8701 54.1308 63.9309 54.1308 65.0239 54.1308C65.0239 53.7064 65.0239 53.2821 65.0239 52.8449C65.4358 52.7281 65.8477 52.6112 66.2721 52.4908C69.6161 51.519 72.7687 50.4092 75.9537 48.9873C77.0511 48.5563 78.1495 48.1279 79.2487 47.7015C80.9577 47.0266 82.4291 46.3868 83.9903 45.4111C86.047 44.2284 88.1436 43.6879 90.4196 43.0478C91.8524 42.6112 93.1594 42.0969 94.5183 41.4731C96.5274 40.6293 96.5274 40.6293 99.0991 40.6293C99.0991 40.2049 99.0991 39.7806 99.0991 39.3434C100.372 39.3434 101.645 39.3434 102.957 39.3434C102.957 38.9191 102.957 38.4947 102.957 38.0576C103.805 38.0576 104.654 38.0576 105.528 38.0576C105.528 37.6332 105.528 37.2089 105.528 36.7717C106.801 36.7717 108.074 36.7717 109.386 36.7717C109.386 36.3474 109.386 35.923 109.386 35.4858C110.604 35.0682 111.823 34.6535 113.043 34.2402C113.721 34.0089 114.4 33.7777 115.1 33.5395C116.838 32.9964 118.524 32.5869 120.316 32.2712C120.316 31.8469 120.316 31.4225 120.316 30.9853C120.772 30.8536 121.229 30.7218 121.7 30.586C122.29 30.4128 122.881 30.2396 123.49 30.0611C124.079 29.8896 124.669 29.718 125.276 29.5413C126.707 29.1914 126.707 29.1914 127.388 28.4136C128.674 28.3874 129.96 28.3863 131.246 28.4136C131.246 27.9893 131.246 27.565 131.246 27.1278C133.573 26.2815 135.165 25.8419 137.675 25.8419C137.675 25.4176 137.675 24.9932 137.675 24.5561C138.736 24.5561 139.796 24.5561 140.889 24.5561C140.889 24.1317 140.889 23.7074 140.889 23.2702C142.162 23.2702 143.435 23.2702 144.747 23.2702C144.747 22.8459 144.747 22.4215 144.747 21.9843C145.965 21.5667 147.184 21.152 148.404 20.7387C149.082 20.5074 149.761 20.2762 150.461 20.038C152.199 19.4949 153.886 19.0854 155.677 18.7697C155.677 18.3454 155.677 17.921 155.677 17.4838C156.95 17.4838 158.223 17.4838 159.534 17.4838C159.534 17.0595 159.534 16.6352 159.534 16.198C161.992 15.2834 163.979 14.7576 166.607 14.9121C166.607 14.4878 166.607 14.0635 166.607 13.6263C167.88 13.6263 169.153 13.6263 170.464 13.6263C170.464 13.2019 170.464 12.7776 170.464 12.3404C172.719 11.3094 174.414 10.9129 176.893 11.0546C176.893 10.6302 176.893 10.2059 176.893 9.7687C177.954 9.7687 179.015 9.7687 180.108 9.7687C180.108 9.34437 180.108 8.92004 180.108 8.48285C180.865 8.23794 180.865 8.23794 181.638 7.98809C186.079 6.5509 186.079 6.5509 190.395 4.78601C192.324 3.98235 192.324 3.98235 194.895 3.98235C194.895 3.55801 194.895 3.13368 194.895 2.69649C195.744 2.69649 196.593 2.69649 197.467 2.69649C197.467 2.27216 197.467 1.84782 197.467 1.41063C198.74 1.41063 200.013 1.41063 201.325 1.41063C201.325 0.9863 201.325 0.561967 201.325 0.124776Z" fill="white"/>
<path d="M205.986 88.7281C207.111 89.4916 207.111 89.4916 207.754 90.1345C207.857 91.7072 207.921 93.2638 207.957 94.8384C207.971 95.3084 207.984 95.7785 207.998 96.2627C208.04 97.7694 208.078 99.2762 208.116 100.783C208.143 101.802 208.171 102.821 208.2 103.841C208.269 106.344 208.334 108.848 208.397 111.351C211.249 111.447 212.887 111.084 215.462 109.852C217.958 109.023 220.587 109.281 223.184 109.422C223.184 108.998 223.184 108.574 223.184 108.136C223.734 108.098 224.283 108.059 224.849 108.018C225.56 107.965 226.27 107.911 227.002 107.855C227.71 107.803 228.419 107.751 229.149 107.697C230.842 107.684 230.842 107.684 231.542 106.851C232.491 106.758 233.443 106.705 234.395 106.67C234.971 106.646 235.546 106.622 236.138 106.597C237.361 106.552 238.583 106.507 239.805 106.461C240.38 106.437 240.955 106.413 241.548 106.389C242.079 106.369 242.61 106.35 243.158 106.33C244.405 106.34 244.405 106.34 245.044 105.565C246.106 105.501 247.171 105.482 248.235 105.482C249.255 105.479 249.255 105.479 250.296 105.475C251.406 105.477 251.406 105.477 252.538 105.479C253.669 105.478 253.669 105.478 254.823 105.478C256.42 105.477 258.018 105.478 259.616 105.481C262.071 105.484 264.526 105.481 266.981 105.477C268.529 105.477 270.077 105.478 271.625 105.479C272.735 105.477 272.735 105.477 273.867 105.475C274.548 105.477 275.228 105.48 275.928 105.482C276.831 105.482 276.831 105.482 277.752 105.483C279.119 105.565 279.119 105.565 279.762 106.208C281.493 106.36 283.211 106.479 284.946 106.569C285.433 106.597 285.921 106.625 286.424 106.653C287.632 106.722 288.84 106.787 290.049 106.851C290.049 107.275 290.049 107.699 290.049 108.136C292.383 108.136 294.717 108.136 297.121 108.136C297.121 108.561 297.121 108.985 297.121 109.422C298.818 109.422 300.516 109.422 302.265 109.422C302.265 109.847 302.265 110.271 302.265 110.708C302.808 110.668 303.352 110.629 303.912 110.588C306.024 110.703 307.391 111.145 309.287 112.037C312.019 113.264 314.874 114.204 317.695 115.209C317.695 115.633 317.695 116.057 317.695 116.495C318.756 116.495 319.816 116.495 320.909 116.495C320.909 116.919 320.909 117.343 320.909 117.78C321.97 117.78 323.031 117.78 324.124 117.78C324.124 118.205 324.124 118.629 324.124 119.066C324.456 119.119 324.787 119.172 325.129 119.227C326.982 119.797 328.453 120.703 330.114 121.688C331.307 122.342 332.424 122.709 333.768 122.924C333.768 123.348 333.768 123.773 333.768 124.21C334.192 124.342 334.617 124.475 335.054 124.612C337.253 125.619 338.935 126.935 340.838 128.411C342.456 129.595 344.158 130.461 345.984 131.282C345.984 131.706 345.984 132.131 345.984 132.568C347.257 132.992 348.53 133.416 349.841 133.854C349.841 134.278 349.841 134.702 349.841 135.139C350.266 135.139 350.69 135.139 351.127 135.139C351.127 135.564 351.127 135.988 351.127 136.425C351.551 136.425 351.976 136.425 352.413 136.425C352.413 136.85 352.413 137.274 352.413 137.711C352.788 137.778 353.162 137.845 353.548 137.915C355.201 138.42 356.1 139.11 357.396 140.243C357.987 140.749 357.987 140.749 358.591 141.265C359.485 142.212 359.485 142.212 359.485 143.498C359.91 143.498 360.334 143.498 360.771 143.498C360.771 143.922 360.771 144.346 360.771 144.783C361.195 144.783 361.62 144.783 362.057 144.783C362.057 145.208 362.057 145.632 362.057 146.069C362.906 146.494 363.754 146.918 364.629 147.355C364.629 147.779 364.629 148.204 364.629 148.641C365.053 148.641 365.477 148.641 365.914 148.641C365.914 149.065 365.914 149.49 365.914 149.927C366.272 150.073 366.631 150.219 366.999 150.369C368.912 151.454 370.235 152.799 371.701 154.427C371.701 154.852 371.701 155.276 371.701 155.713C372.125 155.713 372.549 155.713 372.987 155.713C373.411 156.986 373.835 158.259 374.273 159.571C374.697 159.571 375.121 159.571 375.558 159.571C375.558 159.995 375.558 160.419 375.558 160.857C375.983 160.857 376.407 160.857 376.844 160.857C376.844 161.281 376.844 161.705 376.844 162.142C377.269 162.142 377.693 162.142 378.13 162.142C378.13 162.779 378.13 163.415 378.13 164.071C378.554 164.071 378.979 164.071 379.416 164.071C379.416 164.708 379.416 165.344 379.416 166C379.84 166 380.265 166 380.702 166C382.178 167.647 382.631 168.237 382.631 170.501C383.055 170.501 383.479 170.501 383.916 170.501C385.202 172.429 385.202 172.429 385.202 174.358C385.627 174.358 386.051 174.358 386.488 174.358C389.06 178.537 389.06 178.537 389.06 181.43C389.484 181.43 389.909 181.43 390.346 181.43C390.346 182.279 390.346 183.128 390.346 184.002C390.77 184.002 391.194 184.002 391.632 184.002C391.632 184.426 391.632 184.851 391.632 185.288C392.056 185.288 392.48 185.288 392.917 185.288C392.917 186.137 392.917 186.985 392.917 187.86C393.342 187.86 393.766 187.86 394.203 187.86C394.714 188.863 395.223 189.868 395.73 190.873C396.014 191.433 396.297 191.992 396.589 192.569C397.888 195.265 398.704 197.038 398.704 200.075C399.128 200.075 399.552 200.075 399.99 200.075C399.99 200.924 399.99 201.773 399.99 202.647C400.414 202.647 400.838 202.647 401.276 202.647C402.405 205.542 402.685 207.904 402.561 211.005C402.986 211.005 403.41 211.005 403.847 211.005C403.847 212.278 403.847 213.551 403.847 214.863C404.272 214.863 404.696 214.863 405.133 214.863C405.133 216.348 405.133 217.833 405.133 219.363C405.557 219.363 405.982 219.363 406.419 219.363C408.38 226.874 408.38 226.874 408.75 229.771C408.796 231.514 408.796 231.514 409.634 232.222C409.807 234.285 409.92 236.344 410.023 238.412C409.953 240.65 409.953 240.65 410.919 242.509C410.983 243.488 411.002 244.471 411.003 245.453C411.006 246.393 411.006 246.393 411.009 247.352C411.007 248.033 411.006 248.715 411.005 249.418C411.005 250.113 411.006 250.808 411.007 251.524C411.007 252.998 411.006 254.472 411.003 255.946C411 258.208 411.003 260.47 411.007 262.732C411.007 264.16 411.006 265.589 411.005 267.018C411.006 267.698 411.007 268.379 411.009 269.08C411.007 269.708 411.005 270.337 411.003 270.984C411.002 271.817 411.002 271.817 411.001 272.666C410.919 274.012 410.919 274.012 410.277 275.298C410.176 276.582 410.099 277.869 410.035 279.155C409.804 282.488 409.255 285.367 408.195 288.523C407.5 290.739 407.101 292.988 406.695 295.271C406.419 296.515 406.419 296.515 405.776 297.157C405.683 297.82 405.59 298.484 405.495 299.167C405.138 301.622 404.571 303.794 403.847 306.158C403.423 306.158 402.999 306.158 402.561 306.158C402.601 306.974 402.601 306.974 402.642 307.806C402.552 310.287 402.029 312.161 401.276 314.517C400.851 314.517 400.427 314.517 399.99 314.517C399.99 315.79 399.99 317.063 399.99 318.374C399.565 318.374 399.141 318.374 398.704 318.374C398.604 318.991 398.604 318.991 398.503 319.62C397.547 323.879 395.981 327.898 394.203 331.876C393.779 331.876 393.355 331.876 392.917 331.876C392.825 332.353 392.732 332.83 392.636 333.322C392.338 334.782 392.005 336.22 391.632 337.662C391.207 337.662 390.783 337.662 390.346 337.662C390.346 338.511 390.346 339.359 390.346 340.234C389.921 340.234 389.497 340.234 389.06 340.234C389.06 341.082 389.06 341.931 389.06 342.805C388.636 342.805 388.211 342.805 387.774 342.805C387.827 343.23 387.88 343.654 387.935 344.091C387.709 346.8 386.508 348.815 385.202 351.163C384.778 351.163 384.354 351.163 383.916 351.163C383.838 351.531 383.759 351.899 383.678 352.279C383.256 353.799 382.671 355.067 381.947 356.468C381.715 356.922 381.482 357.376 381.242 357.844C381.064 358.185 380.885 358.527 380.702 358.879C380.277 358.879 379.853 358.879 379.416 358.879C379.416 359.727 379.416 360.576 379.416 361.45C378.992 361.45 378.567 361.45 378.13 361.45C378.13 362.087 378.13 362.723 378.13 363.379C377.706 363.379 377.281 363.379 376.844 363.379C376.751 363.777 376.659 364.175 376.563 364.585C376.201 365.951 376.201 365.951 375.558 367.237C375.134 367.237 374.71 367.237 374.273 367.237C374.273 368.085 374.273 368.934 374.273 369.808C373.848 369.808 373.424 369.808 372.987 369.808C372.987 370.233 372.987 370.657 372.987 371.094C372.562 371.094 372.138 371.094 371.701 371.094C371.648 371.545 371.595 371.996 371.54 372.46C370.942 374.753 369.922 376.296 368.486 378.166C368.062 378.166 367.638 378.166 367.2 378.166C367.2 378.591 367.2 379.015 367.2 379.452C366.776 379.452 366.352 379.452 365.914 379.452C365.914 380.301 365.914 381.15 365.914 382.024C365.49 382.024 365.066 382.024 364.629 382.024C364.629 382.448 364.629 382.873 364.629 383.31C364.204 383.31 363.78 383.31 363.343 383.31C363.343 383.734 363.343 384.159 363.343 384.596C362.918 384.596 362.494 384.596 362.057 384.596C361.991 384.954 361.924 385.312 361.856 385.681C361.323 387.474 360.551 388.848 359.485 390.382C359.061 390.382 358.637 390.382 358.199 390.382C358.027 390.899 357.855 391.416 357.677 391.949C357.425 392.493 357.173 393.037 356.913 393.597C356.277 393.809 355.64 394.021 354.985 394.24C354.985 394.664 354.985 395.088 354.985 395.526C354.56 395.526 354.136 395.526 353.699 395.526C353.699 395.95 353.699 396.374 353.699 396.811C353.274 396.811 352.85 396.811 352.413 396.811C352.413 397.236 352.413 397.66 352.413 398.097C351.989 398.097 351.564 398.097 351.127 398.097C351.127 398.946 351.127 399.795 351.127 400.669C350.703 400.669 350.278 400.669 349.841 400.669C349.417 401.73 348.993 402.791 348.555 403.884C348.131 403.884 347.707 403.884 347.27 403.884C347.27 404.308 347.27 404.732 347.27 405.169C346.845 405.169 346.421 405.169 345.984 405.169C345.984 405.594 345.984 406.018 345.984 406.455C345.559 406.455 345.135 406.455 344.698 406.455C344.525 406.946 344.353 407.437 344.175 407.942C343.443 409.599 342.889 410.486 341.483 411.599C341.059 411.599 340.635 411.599 340.197 411.599C339.773 412.66 339.349 413.72 338.911 414.813C338.487 414.813 338.063 414.813 337.626 414.813C337.626 415.238 337.626 415.662 337.626 416.099C337.201 416.099 336.777 416.099 336.34 416.099C336.34 416.524 336.34 416.948 336.34 417.385C335.915 417.385 335.491 417.385 335.054 417.385C335.054 417.809 335.054 418.234 335.054 418.671C334.63 418.671 334.205 418.671 333.768 418.671C333.768 419.095 333.768 419.52 333.768 419.957C333.344 419.957 332.919 419.957 332.482 419.957C332.482 420.381 332.482 420.805 332.482 421.243C332.058 421.243 331.634 421.243 331.196 421.243C331.196 421.667 331.196 422.091 331.196 422.529C330.772 422.529 330.348 422.529 329.91 422.529C329.91 422.953 329.91 423.377 329.91 423.814C329.407 423.96 328.903 424.106 328.384 424.256C326.555 424.96 326.555 424.96 325.852 426.788C325.706 427.292 325.56 427.796 325.41 428.315C324.986 428.315 324.561 428.315 324.124 428.315C324.124 428.739 324.124 429.164 324.124 429.601C323.7 429.601 323.275 429.601 322.838 429.601C322.838 430.025 322.838 430.449 322.838 430.887C322.414 430.887 321.99 430.887 321.552 430.887C321.552 431.311 321.552 431.735 321.552 432.172C321.128 432.172 320.704 432.172 320.267 432.172C320.267 432.597 320.267 433.021 320.267 433.458C319.842 433.458 319.418 433.458 318.981 433.458C318.981 433.883 318.981 434.307 318.981 434.744C317.92 435.169 316.859 435.593 315.766 436.03C315.766 436.454 315.766 436.879 315.766 437.316C315.342 437.316 314.917 437.316 314.48 437.316C314.48 437.74 314.48 438.165 314.48 438.602C313.632 438.602 312.783 438.602 311.908 438.602C311.484 439.663 311.06 440.723 310.623 441.816C310.198 441.816 309.774 441.816 309.337 441.816C309.337 442.241 309.337 442.665 309.337 443.102C308.276 443.527 307.215 443.951 306.122 444.388C306.122 444.812 306.122 445.237 306.122 445.674C305.486 445.674 304.849 445.674 304.193 445.674C304.193 446.098 304.193 446.523 304.193 446.96C303.132 447.384 302.072 447.808 300.979 448.246C300.979 448.67 300.979 449.094 300.979 449.532C300.554 449.532 300.13 449.532 299.693 449.532C299.693 449.956 299.693 450.38 299.693 450.817C298.472 451.882 298.472 451.882 296.88 453.068C295.367 454.202 293.958 455.266 292.621 456.604C291.984 456.604 291.348 456.604 290.692 456.604C290.692 457.028 290.692 457.452 290.692 457.89C290.055 457.89 289.419 457.89 288.763 457.89C288.763 458.314 288.763 458.738 288.763 459.175C286.834 460.461 286.834 460.461 284.905 460.461C284.905 460.886 284.905 461.31 284.905 461.747C284.481 461.747 284.057 461.747 283.62 461.747C283.62 462.172 283.62 462.596 283.62 463.033C281.691 464.319 281.691 464.319 279.762 464.319C279.55 464.955 279.338 465.592 279.119 466.248C275.666 468.819 275.666 468.819 273.976 468.819C273.976 469.244 273.976 469.668 273.976 470.105C273.551 470.105 273.127 470.105 272.69 470.105C272.69 470.53 272.69 470.954 272.69 471.391C271.841 471.391 270.992 471.391 270.118 471.391C270.118 471.815 270.118 472.24 270.118 472.677C268.189 473.963 268.189 473.963 266.261 473.963C266.261 474.387 266.261 474.811 266.261 475.249C265.624 475.249 264.988 475.249 264.332 475.249C264.332 475.673 264.332 476.097 264.332 476.535C263.483 476.535 262.634 476.535 261.76 476.535C261.76 476.959 261.76 477.383 261.76 477.82C261.336 477.82 260.911 477.82 260.474 477.82C260.474 478.245 260.474 478.669 260.474 479.106C259.221 480.01 257.929 480.861 256.617 481.678C256.033 482.049 255.45 482.421 254.849 482.803C253.402 483.607 253.402 483.607 252.116 483.607C252.116 484.031 252.116 484.455 252.116 484.893C251.267 484.893 250.419 484.893 249.544 484.893C249.544 485.317 249.544 485.741 249.544 486.178C247.616 487.464 247.616 487.464 245.687 487.464C245.687 487.889 245.687 488.313 245.687 488.75C244.838 488.75 243.989 488.75 243.115 488.75C243.115 489.175 243.115 489.599 243.115 490.036C242.691 490.036 242.266 490.036 241.829 490.036C241.829 490.46 241.829 490.885 241.829 491.322C241.146 491.568 241.146 491.568 240.448 491.819C237.807 492.955 235.545 494.571 233.165 496.169C231.542 497.108 231.542 497.108 229.614 497.108C229.614 497.533 229.614 497.957 229.614 498.394C225.435 500.966 225.435 500.966 222.541 500.966C222.541 501.39 222.541 501.814 222.541 502.252C221.693 502.252 220.844 502.252 219.97 502.252C219.97 502.676 219.97 503.1 219.97 503.538C219.121 503.538 218.272 503.538 217.398 503.538C217.398 503.962 217.398 504.386 217.398 504.823C215.245 506.586 213.109 507.949 210.326 508.239C209.901 508.173 209.477 508.106 209.04 508.038C209.04 508.462 209.04 508.887 209.04 509.324C205.038 509.672 201.613 508.759 198.11 506.752C197.898 506.116 197.686 505.479 197.467 504.823C196.619 504.823 195.77 504.823 194.895 504.823C194.895 504.399 194.895 503.975 194.895 503.538C194.564 503.471 194.232 503.405 193.891 503.337C191.771 502.739 189.838 501.857 187.823 500.966C187.823 500.541 187.823 500.117 187.823 499.68C186.975 499.68 186.126 499.68 185.252 499.68C185.252 499.256 185.252 498.831 185.252 498.394C184.403 498.394 183.554 498.394 182.68 498.394C182.68 497.97 182.68 497.545 182.68 497.108C182.256 497.108 181.831 497.108 181.394 497.108C181.394 496.684 181.394 496.26 181.394 495.822C180.718 495.743 180.718 495.743 180.028 495.662C177.735 495.064 176.193 494.043 174.322 492.608C174.322 492.183 174.322 491.759 174.322 491.322C173.473 491.322 172.624 491.322 171.75 491.322C171.75 490.898 171.75 490.473 171.75 490.036C170.901 490.036 170.053 490.036 169.178 490.036C169.178 489.612 169.178 489.187 169.178 488.75C168.794 488.657 168.409 488.565 168.013 488.469C166.889 488.18 165.779 487.831 164.678 487.464C164.678 487.04 164.678 486.616 164.678 486.178C164.28 486.086 163.882 485.993 163.472 485.897C162.106 485.536 162.106 485.536 160.82 484.893C160.82 484.468 160.82 484.044 160.82 483.607C160.422 483.514 160.025 483.421 159.615 483.325C158.249 482.964 158.249 482.964 156.963 482.321C156.963 481.897 156.963 481.472 156.963 481.035C156.472 480.955 155.981 480.876 155.476 480.794C153.748 480.392 153.748 480.392 151.819 479.106C151.819 478.682 151.819 478.258 151.819 477.82C151.183 477.82 150.546 477.82 149.89 477.82C149.89 477.396 149.89 476.972 149.89 476.535C149.493 476.442 149.095 476.349 148.685 476.253C147.319 475.892 147.319 475.892 146.033 475.249C146.033 474.824 146.033 474.4 146.033 473.963C145.609 473.963 145.184 473.963 144.747 473.963C144.747 473.538 144.747 473.114 144.747 472.677C144.284 472.616 143.82 472.554 143.343 472.491C141.256 471.964 140.009 471.132 138.278 469.864C137.74 469.475 137.202 469.085 136.648 468.684C136.138 468.304 135.628 467.925 135.103 467.534C134.613 467.194 134.124 466.854 133.619 466.504C133.26 466.207 132.901 465.91 132.531 465.605C132.531 465.18 132.531 464.756 132.531 464.319C131.258 463.895 129.985 463.47 128.674 463.033C128.674 462.609 128.674 462.184 128.674 461.747C127.613 461.323 126.552 460.899 125.459 460.461C125.459 460.037 125.459 459.613 125.459 459.175C124.186 458.751 122.913 458.327 121.602 457.89C121.602 457.465 121.602 457.041 121.602 456.604C121.177 456.604 120.753 456.604 120.316 456.604C120.316 456.179 120.316 455.755 120.316 455.318C119.891 455.318 119.467 455.318 119.03 455.318C119.03 454.894 119.03 454.469 119.03 454.032C118.606 454.032 118.181 454.032 117.744 454.032C117.744 453.608 117.744 453.183 117.744 452.746C116.895 452.534 116.047 452.322 115.172 452.103C115.172 451.679 115.172 451.255 115.172 450.817C114.536 450.817 113.899 450.817 113.244 450.817C113.244 450.393 113.244 449.969 113.244 449.532C112.819 449.532 112.395 449.532 111.958 449.532C111.958 449.107 111.958 448.683 111.958 448.246C111.56 448.153 111.162 448.06 110.752 447.964C109.386 447.603 109.386 447.603 108.1 446.96C108.1 446.535 108.1 446.111 108.1 445.674C107.676 445.674 107.251 445.674 106.814 445.674C106.814 445.25 106.814 444.825 106.814 444.388C106.39 444.388 105.966 444.388 105.528 444.388C105.528 443.964 105.528 443.539 105.528 443.102C105.104 443.102 104.68 443.102 104.243 443.102C104.243 442.678 104.243 442.254 104.243 441.816C103.831 441.644 103.42 441.472 102.997 441.294C101.671 440.531 101.671 440.531 101.028 438.602C99.7831 438.17 99.7831 438.17 98.4562 437.959C98.0319 437.747 97.6075 437.534 97.1703 437.316C97.1703 436.892 97.1703 436.467 97.1703 436.03C96.746 436.03 96.3217 436.03 95.8845 436.03C95.8845 435.606 95.8845 435.181 95.8845 434.744C95.4602 434.744 95.0358 434.744 94.5986 434.744C94.5986 434.32 94.5986 433.896 94.5986 433.458C94.1743 433.458 93.75 433.458 93.3128 433.458C93.3128 433.034 93.3128 432.61 93.3128 432.172C92.8884 432.172 92.4641 432.172 92.0269 432.172C92.0269 431.748 92.0269 431.324 92.0269 430.887C91.6026 430.887 91.1783 430.887 90.7411 430.887C90.7411 430.462 90.7411 430.038 90.7411 429.601C90.3565 429.428 89.972 429.256 89.5758 429.078C88.1703 428.315 87.2607 427.61 86.2406 426.386C86.2406 425.962 86.2406 425.537 86.2406 425.1C85.8162 425.1 85.3919 425.1 84.9547 425.1C84.9547 424.676 84.9547 424.252 84.9547 423.814C84.5304 423.814 84.106 423.814 83.6689 423.814C83.6689 423.39 83.6689 422.966 83.6689 422.529C83.2445 422.529 82.8202 422.529 82.383 422.529C82.383 422.104 82.383 421.68 82.383 421.243C81.9587 421.243 81.5343 421.243 81.0971 421.243C81.0971 420.818 81.0971 420.394 81.0971 419.957C80.3873 419.728 80.3873 419.728 79.6631 419.495C77.6079 418.544 76.582 417.486 75.1099 415.778C74.6615 415.267 74.2131 414.757 73.7512 414.231C72.7391 412.885 72.7391 412.885 72.7391 411.599C72.3147 411.599 71.8904 411.599 71.4532 411.599C71.4532 411.174 71.4532 410.75 71.4532 410.313C71.0289 410.313 70.6045 410.313 70.1674 410.313C70.1674 409.889 70.1674 409.464 70.1674 409.027C69.743 409.027 69.3187 409.027 68.8815 409.027C68.8815 408.603 68.8815 408.178 68.8815 407.741C68.4572 407.741 68.0328 407.741 67.5956 407.741C67.5956 407.317 67.5956 406.892 67.5956 406.455C67.1713 406.455 66.747 406.455 66.3098 406.455C66.3098 406.031 66.3098 405.607 66.3098 405.169C65.8854 405.169 65.4611 405.169 65.0239 405.169C65.0239 403.472 65.0239 401.775 65.0239 400.026C66.2969 400.026 67.5699 400.026 68.8815 400.026C68.8815 400.45 68.8815 400.875 68.8815 401.312C69.7302 401.312 70.5788 401.312 71.4532 401.312C71.4532 401.736 71.4532 402.161 71.4532 402.598C71.8974 402.672 72.3417 402.747 72.7993 402.824C74.9087 403.294 76.8306 403.99 78.8469 404.768C79.5563 405.038 80.2658 405.308 80.9967 405.586C83.0259 406.455 83.0259 406.455 84.7211 407.477C86.1881 408.353 87.3569 408.783 89.0132 409.148C89.7956 409.32 90.5779 409.492 91.384 409.67C91.384 410.094 91.384 410.519 91.384 410.956C92.3189 410.936 92.3189 410.936 93.2726 410.916C95.2416 410.956 95.2416 410.956 95.8845 411.599C96.7508 411.747 97.6228 411.863 98.4964 411.96C99.3318 412.053 100.167 412.146 101.028 412.242C101.028 412.666 101.028 413.09 101.028 413.528C102.725 413.528 104.423 413.528 106.171 413.528C106.171 413.952 106.171 414.376 106.171 414.813C106.628 414.806 107.085 414.798 107.555 414.791C108.442 414.782 108.442 414.782 109.346 414.773C109.935 414.766 110.524 414.758 111.131 414.751C112.601 414.813 112.601 414.813 113.244 415.456C114.42 415.59 115.599 415.693 116.78 415.778C120.244 416.028 120.244 416.028 120.959 416.742C122.127 416.836 123.298 416.888 124.47 416.923C125.184 416.947 125.899 416.971 126.635 416.996C127.763 417.029 127.763 417.029 128.915 417.064C130.393 417.108 131.872 417.155 133.35 417.204C134.009 417.224 134.669 417.243 135.348 417.263C137.032 417.385 137.032 417.385 138.961 418.028C141.263 418.202 143.566 418.314 145.872 418.427C147.962 418.671 147.962 418.671 149.89 419.957C149.89 420.381 149.89 420.805 149.89 421.243C150.288 421.296 150.686 421.349 151.096 421.403C152.462 421.886 152.462 421.886 153.266 423.212C153.425 423.623 153.584 424.034 153.748 424.457C154.597 424.457 155.445 424.457 156.32 424.457C156.32 424.882 156.32 425.306 156.32 425.743C157.593 426.168 158.866 426.592 160.177 427.029C160.177 427.453 160.177 427.878 160.177 428.315C160.814 428.315 161.45 428.315 162.106 428.315C162.106 428.739 162.106 429.164 162.106 429.601C162.53 429.601 162.955 429.601 163.392 429.601C163.392 430.025 163.392 430.449 163.392 430.887C163.816 430.887 164.241 430.887 164.678 430.887C164.678 431.311 164.678 431.735 164.678 432.172C165.527 432.172 166.375 432.172 167.25 432.172C167.25 432.597 167.25 433.021 167.25 433.458C168.098 433.458 168.947 433.458 169.821 433.458C169.821 433.883 169.821 434.307 169.821 434.744C170.246 434.744 170.67 434.744 171.107 434.744C171.107 435.169 171.107 435.593 171.107 436.03C171.956 436.242 172.804 436.454 173.679 436.673C173.679 437.097 173.679 437.522 173.679 437.959C174.315 437.959 174.952 437.959 175.608 437.959C175.608 438.383 175.608 438.807 175.608 439.245C176.881 439.669 178.154 440.093 179.465 440.531C179.465 440.955 179.465 441.379 179.465 441.816C180.314 441.816 181.163 441.816 182.037 441.816C182.037 442.241 182.037 442.665 182.037 443.102C182.461 443.102 182.886 443.102 183.323 443.102C183.323 443.527 183.323 443.951 183.323 444.388C184.171 444.388 185.02 444.388 185.894 444.388C185.894 444.812 185.894 445.237 185.894 445.674C186.438 445.82 186.982 445.966 187.542 446.116C190.076 447.084 192.252 448.327 194.253 450.174C194.253 450.599 194.253 451.023 194.253 451.46C195.101 451.46 195.95 451.46 196.824 451.46C196.824 451.885 196.824 452.309 196.824 452.746C198.309 453.171 199.795 453.595 201.325 454.032C201.325 454.456 201.325 454.881 201.325 455.318C202.173 455.318 203.022 455.318 203.896 455.318C203.896 455.742 203.896 456.167 203.896 456.604C205.806 456.604 207.715 456.604 209.683 456.604C209.683 456.179 209.683 455.755 209.683 455.318C210.531 455.318 211.38 455.318 212.255 455.318C212.255 454.894 212.255 454.469 212.255 454.032C213.103 454.032 213.952 454.032 214.826 454.032C214.826 453.608 214.826 453.183 214.826 452.746C216.755 451.46 216.755 451.46 218.684 451.46C218.684 451.036 218.684 450.612 218.684 450.174C221.503 448.246 221.503 448.246 223.184 448.246C223.184 447.821 223.184 447.397 223.184 446.96C224.033 446.96 224.882 446.96 225.756 446.96C225.756 446.535 225.756 446.111 225.756 445.674C226.18 445.674 226.605 445.674 227.042 445.674C227.042 445.25 227.042 444.825 227.042 444.388C227.891 444.388 228.739 444.388 229.614 444.388C229.614 443.964 229.614 443.539 229.614 443.102C233.953 440.531 233.953 440.531 235.4 440.531C235.4 440.106 235.4 439.682 235.4 439.245C237.329 437.959 237.329 437.959 239.258 437.959C239.377 437.601 239.496 437.243 239.619 436.874C241.693 433.538 245.195 431.881 248.901 430.887C248.901 430.462 248.901 430.038 248.901 429.601C249.326 429.601 249.75 429.601 250.187 429.601C250.187 429.176 250.187 428.752 250.187 428.315C250.612 428.315 251.036 428.315 251.473 428.315C251.473 427.891 251.473 427.466 251.473 427.029C252.322 427.029 253.171 427.029 254.045 427.029C254.045 426.605 254.045 426.18 254.045 425.743C254.469 425.743 254.894 425.743 255.331 425.743C255.331 425.319 255.331 424.895 255.331 424.457C256.27 423.629 256.27 423.629 257.501 422.77C257.903 422.483 258.306 422.196 258.721 421.901C259.831 421.243 259.831 421.243 261.117 421.243C261.117 420.818 261.117 420.394 261.117 419.957C263.046 418.671 263.046 418.671 264.975 418.671C264.975 418.247 264.975 417.822 264.975 417.385C265.399 417.385 265.823 417.385 266.261 417.385C266.261 416.961 266.261 416.536 266.261 416.099C267.376 415.17 268.536 414.293 269.716 413.447C270.358 412.981 270.999 412.516 271.66 412.036C273.333 410.956 273.333 410.956 274.619 410.956C274.619 410.531 274.619 410.107 274.619 409.67C275.043 409.67 275.467 409.67 275.904 409.67C276.064 409.285 276.223 408.901 276.387 408.505C277.307 406.895 278.199 406.146 279.762 405.169C280.186 405.169 280.611 405.169 281.048 405.169C281.048 404.745 281.048 404.321 281.048 403.884C281.472 403.884 281.897 403.884 282.334 403.884C282.334 403.459 282.334 403.035 282.334 402.598C283.273 401.628 283.273 401.628 284.504 400.589C284.906 400.242 285.309 399.896 285.724 399.539C286.834 398.74 286.834 398.74 288.12 398.74C288.12 398.316 288.12 397.891 288.12 397.454C288.969 397.454 289.817 397.454 290.692 397.454C290.785 397.056 290.877 396.659 290.973 396.249C291.335 394.883 291.335 394.883 291.978 393.597C292.402 393.597 292.826 393.597 293.264 393.597C293.423 393.186 293.582 392.775 293.746 392.351C294.549 391.025 294.549 391.025 295.916 390.543C296.313 390.49 296.711 390.437 297.121 390.382C297.121 389.958 297.121 389.533 297.121 389.096C299.995 386.525 299.995 386.525 301.622 386.525C301.622 386.1 301.622 385.676 301.622 385.239C302.046 385.239 302.47 385.239 302.907 385.239C303.093 384.854 303.279 384.47 303.47 384.073C304.193 382.667 304.193 382.667 305.479 380.738C305.904 380.738 306.328 380.738 306.765 380.738C306.765 380.314 306.765 379.889 306.765 379.452C307.189 379.452 307.614 379.452 308.051 379.452C308.051 379.028 308.051 378.604 308.051 378.166C308.475 378.166 308.9 378.166 309.337 378.166C309.761 377.318 310.185 376.469 310.623 375.595C311.047 375.595 311.471 375.595 311.908 375.595C312.121 374.746 312.333 373.897 312.551 373.023C312.976 373.023 313.4 373.023 313.837 373.023C313.837 372.599 313.837 372.174 313.837 371.737C314.262 371.737 314.686 371.737 315.123 371.737C315.309 371.353 315.494 370.968 315.686 370.572C316.409 369.165 316.409 369.165 317.695 367.237C318.119 367.237 318.543 367.237 318.981 367.237C318.981 366.6 318.981 365.964 318.981 365.308C319.405 365.308 319.829 365.308 320.267 365.308C320.691 364.247 321.115 363.186 321.552 362.093C321.977 362.093 322.401 362.093 322.838 362.093C322.838 361.669 322.838 361.245 322.838 360.807C323.263 360.807 323.687 360.807 324.124 360.807C324.124 360.383 324.124 359.959 324.124 359.522C324.548 359.522 324.973 359.522 325.41 359.522C325.49 359.137 325.569 358.752 325.651 358.356C326.053 356.95 326.053 356.95 327.339 355.021C327.763 355.021 328.187 355.021 328.625 355.021C328.717 354.623 328.81 354.225 328.906 353.816C329.268 352.449 329.268 352.449 329.91 351.163C330.335 351.163 330.759 351.163 331.196 351.163C331.196 350.739 331.196 350.315 331.196 349.878C331.621 349.878 332.045 349.878 332.482 349.878C332.907 348.605 333.331 347.332 333.768 346.02C334.192 346.02 334.617 346.02 335.054 346.02C335.054 345.171 335.054 344.323 335.054 343.448C335.478 343.448 335.903 343.448 336.34 343.448C336.512 342.997 336.685 342.547 336.862 342.082C337.669 340.128 338.592 338.258 339.554 336.376C339.979 336.376 340.403 336.376 340.84 336.376C340.84 335.952 340.84 335.527 340.84 335.09C341.265 335.09 341.689 335.09 342.126 335.09C342.126 334.242 342.126 333.393 342.126 332.519C342.55 332.519 342.975 332.519 343.412 332.519C343.412 331.67 343.412 330.821 343.412 329.947C343.836 329.947 344.261 329.947 344.698 329.947C344.791 329.562 344.883 329.178 344.979 328.782C345.268 327.657 345.617 326.548 345.984 325.446C346.408 325.446 346.832 325.446 347.27 325.446C347.27 324.598 347.27 323.749 347.27 322.875C347.694 322.875 348.118 322.875 348.555 322.875C348.555 322.026 348.555 321.177 348.555 320.303C348.98 320.303 349.404 320.303 349.841 320.303C349.841 319.454 349.841 318.606 349.841 317.731C350.266 317.731 350.69 317.731 351.127 317.731C351.339 316.67 351.551 315.61 351.77 314.517C352.194 314.517 352.619 314.517 353.056 314.517C353.056 313.244 353.056 311.971 353.056 310.659C353.48 310.659 353.905 310.659 354.342 310.659C354.342 309.81 354.342 308.962 354.342 308.087C354.766 308.087 355.19 308.087 355.628 308.087C355.628 306.814 355.628 305.541 355.628 304.23C356.052 304.23 356.476 304.23 356.913 304.23C356.913 302.957 356.913 301.684 356.913 300.372C357.338 300.372 357.762 300.372 358.199 300.372C358.199 298.887 358.199 297.402 358.199 295.872C358.624 295.872 359.048 295.872 359.485 295.872C359.485 294.599 359.485 293.326 359.485 292.014C359.91 292.014 360.334 292.014 360.771 292.014C360.751 290.761 360.751 290.761 360.731 289.483C360.717 288.612 360.725 287.74 360.771 286.871C360.983 286.658 361.195 286.446 361.414 286.228C361.596 285.336 361.744 284.438 361.876 283.538C361.958 282.995 362.04 282.451 362.125 281.892C362.25 281.035 362.25 281.035 362.378 280.16C362.544 279.035 362.711 277.911 362.881 276.787C362.954 276.286 363.027 275.785 363.103 275.269C363.343 274.012 363.343 274.012 363.986 272.726C364.288 270.516 364.544 268.306 364.789 266.09C365.206 262.505 365.206 262.505 365.914 261.796C365.977 260.834 365.998 259.868 365.995 258.903C365.997 258.118 365.997 258.118 366 257.316C366.059 256.013 366.059 256.013 365.272 255.367C365.133 254.232 365.033 253.092 364.95 251.952C364.897 251.26 364.844 250.569 364.789 249.857C364.682 248.387 364.575 246.917 364.468 245.447C364.415 244.756 364.362 244.065 364.307 243.352C364.261 242.713 364.214 242.074 364.166 241.416C364.143 239.962 364.143 239.962 363.343 239.294C363.135 237.636 363.013 235.977 362.881 234.311C362.853 232.886 362.853 232.886 362.057 232.222C361.843 230.722 361.628 229.221 361.414 227.721C361.202 227.509 360.99 227.297 360.771 227.078C360.745 225.578 360.744 224.078 360.771 222.578C360.347 222.578 359.922 222.578 359.485 222.578C359.485 221.729 359.485 220.88 359.485 220.006C359.061 220.006 358.637 220.006 358.199 220.006C358.199 218.945 358.199 217.884 358.199 216.791C357.775 216.791 357.351 216.791 356.913 216.791C356.913 215.731 356.913 214.67 356.913 213.577C356.489 213.577 356.065 213.577 355.628 213.577C355.628 212.516 355.628 211.455 355.628 210.362C355.203 210.362 354.779 210.362 354.342 210.362C354.342 209.513 354.342 208.665 354.342 207.79C353.917 207.79 353.493 207.79 353.056 207.79C353.056 206.942 353.056 206.093 353.056 205.219C352.632 205.219 352.207 205.219 351.77 205.219C351.137 204.096 350.508 202.97 349.881 201.843C349.531 201.217 349.18 200.59 348.819 199.945C348.063 198.445 347.577 197.212 347.27 195.575C346.845 195.575 346.421 195.575 345.984 195.575C344.698 193.646 344.698 193.646 344.698 191.717C344.273 191.717 343.849 191.717 343.412 191.717C343.412 191.293 343.412 190.869 343.412 190.431C342.988 190.431 342.563 190.431 342.126 190.431C341.954 189.808 341.781 189.185 341.604 188.543C341.352 187.893 341.1 187.243 340.84 186.574C340.204 186.362 339.567 186.149 338.911 185.931C337.505 184.685 337.505 184.685 336.34 183.359C336.34 182.935 336.34 182.51 336.34 182.073C335.915 182.073 335.491 182.073 335.054 182.073C335.054 181.649 335.054 181.225 335.054 180.787C334.63 180.787 334.205 180.787 333.768 180.787C333.768 180.363 333.768 179.939 333.768 179.502C333.344 179.502 332.919 179.502 332.482 179.502C332.482 179.077 332.482 178.653 332.482 178.216C332.058 178.216 331.634 178.216 331.196 178.216C331.196 177.791 331.196 177.367 331.196 176.93C330.772 176.93 330.348 176.93 329.91 176.93C329.91 176.506 329.91 176.081 329.91 175.644C329.536 175.577 329.161 175.51 328.775 175.441C327.122 174.935 326.224 174.245 324.928 173.112C324.533 172.775 324.139 172.438 323.732 172.09C322.838 171.143 322.838 171.143 322.838 169.858C321.565 169.433 320.292 169.009 318.981 168.572C318.981 168.147 318.981 167.723 318.981 167.286C318.556 167.286 318.132 167.286 317.695 167.286C317.695 166.862 317.695 166.437 317.695 166C316.846 166 315.997 166 315.123 166C315.123 165.576 315.123 165.151 315.123 164.714C314.274 164.714 313.426 164.714 312.551 164.714C312.551 164.29 312.551 163.866 312.551 163.428C311.915 163.428 311.278 163.428 310.623 163.428C310.623 163.004 310.623 162.58 310.623 162.142C310.183 162.077 309.742 162.012 309.289 161.944C307.033 161.411 305.121 160.524 303.028 159.531C302.281 159.178 301.535 158.826 300.765 158.463C300.199 158.192 299.633 157.921 299.05 157.642C299.05 157.218 299.05 156.793 299.05 156.356C297.565 156.356 296.08 156.356 294.549 156.356C294.549 155.932 294.549 155.507 294.549 155.07C291.991 154.528 289.425 154.14 286.834 153.784C286.834 153.36 286.834 152.936 286.834 152.499C286.105 152.512 285.376 152.525 284.624 152.539C282.334 152.499 282.334 152.499 281.691 151.856C280.622 151.722 279.55 151.62 278.476 151.534C275.333 151.284 275.333 151.284 274.619 150.57C273.635 150.507 272.649 150.487 271.664 150.487C271.035 150.485 270.407 150.483 269.759 150.48C269.075 150.482 268.392 150.483 267.687 150.484C266.99 150.484 266.293 150.483 265.575 150.483C264.099 150.482 262.622 150.483 261.146 150.486C258.877 150.489 256.608 150.486 254.339 150.482C252.908 150.482 251.477 150.483 250.047 150.484C249.363 150.483 248.679 150.482 247.975 150.48C247.032 150.483 247.032 150.483 246.07 150.487C245.235 150.487 245.235 150.487 244.384 150.488C243.114 150.43 243.114 150.43 242.472 151.213C241.417 151.347 240.358 151.449 239.298 151.534C236.939 151.696 236.939 151.696 234.757 152.499C233.039 152.585 231.335 152.526 229.614 152.499C229.614 152.923 229.614 153.347 229.614 153.784C228.52 153.924 228.52 153.924 227.404 154.066C225.237 154.178 225.237 154.178 224.47 155.07C222.97 155.097 221.47 155.098 219.97 155.07C219.97 155.495 219.97 155.919 219.97 156.356C219.187 156.422 218.405 156.489 217.599 156.557C215.193 156.873 213.482 157.284 211.612 158.928C210.911 161.796 210.974 164.397 211.21 167.326C211.297 168.471 211.297 168.471 211.386 169.639C211.566 171.705 211.566 171.705 211.948 173.384C212.345 175.476 212.388 177.493 212.415 179.622C212.44 180.809 212.44 180.809 212.466 182.021C212.361 183.001 212.361 183.001 212.255 184.002C209.779 185.652 208.663 185.18 205.825 184.645C205.825 184.221 205.825 183.796 205.825 183.359C205.268 183.22 205.268 183.22 204.7 183.078C203.361 182.743 202.021 182.408 200.682 182.073C200.682 181.649 200.682 181.225 200.682 180.787C199.621 180.787 198.56 180.787 197.467 180.787C197.467 180.363 197.467 179.939 197.467 179.502C196.619 179.502 195.77 179.502 194.895 179.502C194.895 179.077 194.895 178.653 194.895 178.216C193.622 178.216 192.349 178.216 191.038 178.216C191.038 177.791 191.038 177.367 191.038 176.93C189.977 176.93 188.916 176.93 187.823 176.93C187.823 176.506 187.823 176.081 187.823 175.644C187.137 175.691 187.137 175.691 186.437 175.739C184.31 175.628 182.982 175.045 181.073 174.117C178.845 173.047 176.627 172.037 174.322 171.143C174.322 170.719 174.322 170.295 174.322 169.858C172.837 169.858 171.351 169.858 169.821 169.858C169.821 169.433 169.821 169.009 169.821 168.572C169.357 168.598 168.893 168.625 168.415 168.652C166.473 168.566 165.148 168.088 163.392 167.286C163.392 166.862 163.392 166.437 163.392 166C162.543 166 161.695 166 160.82 166C160.82 165.576 160.82 165.151 160.82 164.714C159.547 164.714 158.274 164.714 156.963 164.714C156.963 164.29 156.963 163.866 156.963 163.428C156.397 163.458 155.831 163.488 155.247 163.519C152.98 163.423 151.709 162.975 149.69 161.982C149.085 161.691 148.48 161.4 147.856 161.1C147.255 160.808 146.653 160.515 146.033 160.214C144.923 159.713 143.812 159.217 142.698 158.727C142.224 158.517 141.751 158.308 141.264 158.092C140.928 157.943 140.592 157.795 140.247 157.642C140.247 157.218 140.247 156.793 140.247 156.356C139.782 156.263 139.318 156.17 138.84 156.075C137.166 155.74 135.492 155.405 133.817 155.07C133.315 149.944 133.315 149.944 135.103 147.596C135.74 147.092 136.376 146.588 137.032 146.069C137.93 145.253 138.828 144.436 139.724 143.618C142.009 141.569 142.009 141.569 143.461 141.569C143.461 141.144 143.461 140.72 143.461 140.283C143.886 140.283 144.31 140.283 144.747 140.283C144.747 139.859 144.747 139.434 144.747 138.997C145.171 138.997 145.596 138.997 146.033 138.997C146.033 138.573 146.033 138.148 146.033 137.711C146.457 137.711 146.882 137.711 147.319 137.711C147.319 137.287 147.319 136.863 147.319 136.425C147.743 136.425 148.167 136.425 148.605 136.425C148.605 136.001 148.605 135.577 148.605 135.139C149.685 134.17 149.685 134.17 151.096 133.13C151.558 132.784 152.021 132.437 152.497 132.081C153.748 131.282 153.748 131.282 155.034 131.282C155.034 130.858 155.034 130.433 155.034 129.996C155.67 129.996 156.307 129.996 156.963 129.996C156.963 129.36 156.963 128.723 156.963 128.067C157.387 128.067 157.811 128.067 158.249 128.067C158.249 127.643 158.249 127.219 158.249 126.781C159.454 125.415 159.454 125.415 160.82 124.21C161.245 124.21 161.669 124.21 162.106 124.21C162.106 123.785 162.106 123.361 162.106 122.924C164.035 121.638 164.035 121.638 165.964 121.638C165.964 121.214 165.964 120.789 165.964 120.352C168.838 117.78 168.838 117.78 170.464 117.78C170.464 117.356 170.464 116.932 170.464 116.495C170.889 116.495 171.313 116.495 171.75 116.495C171.75 116.07 171.75 115.646 171.75 115.209C173.976 113.28 173.976 113.28 175.608 113.28C175.608 112.856 175.608 112.431 175.608 111.994C176.032 111.994 176.456 111.994 176.893 111.994C176.893 111.57 176.893 111.145 176.893 110.708C177.318 110.708 177.742 110.708 178.179 110.708C178.179 110.284 178.179 109.86 178.179 109.422C182.519 106.851 182.519 106.851 183.966 106.851C183.966 106.426 183.966 106.002 183.966 105.565C184.39 105.565 184.814 105.565 185.252 105.565C185.252 105.14 185.252 104.716 185.252 104.279C185.676 104.279 186.1 104.279 186.537 104.279C186.537 103.855 186.537 103.43 186.537 102.993C186.962 102.993 187.386 102.993 187.823 102.993C187.823 102.569 187.823 102.144 187.823 101.707C190.049 99.7784 190.049 99.7784 191.681 99.7784C191.681 99.3541 191.681 98.9298 191.681 98.4926C192.105 98.4926 192.53 98.4926 192.967 98.4926C192.967 98.0682 192.967 97.6439 192.967 97.2067C193.391 97.2067 193.815 97.2067 194.253 97.2067C194.253 96.7824 194.253 96.358 194.253 95.9209C195.844 95.2844 195.844 95.2844 197.467 94.635C197.467 94.2107 197.467 93.7863 197.467 93.3491C197.892 93.3491 198.316 93.3491 198.753 93.3491C198.753 92.9248 198.753 92.5005 198.753 92.0633C199.177 92.0633 199.602 92.0633 200.039 92.0633C200.039 91.6389 200.039 91.2146 200.039 90.7774C200.463 90.7774 200.888 90.7774 201.325 90.7774C201.325 90.3531 201.325 89.9288 201.325 89.4916C204.166 88.0709 204.166 88.0709 205.986 88.7281Z" fill="white"/>
<path d="M124.174 158.285C125.447 158.285 126.72 158.285 128.031 158.285C128.031 158.709 128.031 159.134 128.031 159.571C129.304 159.571 130.577 159.571 131.889 159.571C131.889 159.995 131.889 160.42 131.889 160.857C132.96 161.071 134.032 161.285 135.103 161.5C136.175 161.714 137.246 161.928 138.318 162.143C138.318 162.567 138.318 162.991 138.318 163.429C139.379 163.429 140.44 163.429 141.533 163.429C141.533 163.853 141.533 164.277 141.533 164.714C142.209 164.834 142.209 164.834 142.899 164.956C146.823 165.809 150.213 167.367 153.748 169.215C153.748 169.639 153.748 170.064 153.748 170.501C155.021 170.501 156.294 170.501 157.606 170.501C157.606 170.925 157.606 171.349 157.606 171.787C159.091 171.787 160.576 171.787 162.106 171.787C162.106 172.211 162.106 172.635 162.106 173.073C162.597 173.033 163.088 172.993 163.593 172.952C165.321 173.073 165.321 173.073 166.486 173.836C167.486 175.361 167.395 176.429 167.25 178.216C166.825 178.216 166.401 178.216 165.964 178.216C165.964 178.64 165.964 179.065 165.964 179.502C165.54 179.502 165.115 179.502 164.678 179.502C164.678 179.926 164.678 180.35 164.678 180.788C164.254 180.788 163.829 180.788 163.392 180.788C163.392 181.212 163.392 181.636 163.392 182.074C162.968 182.074 162.543 182.074 162.106 182.074C162.106 182.498 162.106 182.922 162.106 183.359C161.682 183.359 161.258 183.359 160.82 183.359C160.648 183.744 160.476 184.128 160.298 184.525C159.535 185.93 158.83 186.84 157.606 187.86C157.181 187.86 156.757 187.86 156.32 187.86C156.32 188.284 156.32 188.709 156.32 189.146C155.896 189.146 155.471 189.146 155.034 189.146C155.034 189.57 155.034 189.994 155.034 190.432C154.61 190.432 154.185 190.432 153.748 190.432C153.748 190.856 153.748 191.28 153.748 191.717C153.324 191.717 152.9 191.717 152.462 191.717C152.462 192.142 152.462 192.566 152.462 193.003C152.038 193.003 151.614 193.003 151.177 193.003C151.084 193.401 150.991 193.799 150.895 194.209C150.534 195.575 150.534 195.575 149.891 196.861C149.466 196.861 149.042 196.861 148.605 196.861C148.459 197.285 148.313 197.71 148.163 198.147C147.07 200.646 145.778 203.057 144.104 205.219C143.68 205.219 143.256 205.219 142.818 205.219C142.726 205.617 142.633 206.015 142.537 206.424C142.176 207.791 142.176 207.791 141.533 209.077C141.108 209.077 140.684 209.077 140.247 209.077C140.247 209.925 140.247 210.774 140.247 211.648C139.822 211.648 139.398 211.648 138.961 211.648C138.868 212.126 138.775 212.603 138.68 213.095C138.381 214.554 138.049 215.993 137.675 217.435C137.251 217.435 136.826 217.435 136.389 217.435C136.402 218.164 136.416 218.893 136.429 219.645C136.389 221.935 136.389 221.935 135.746 222.578C135.614 223.432 135.511 224.29 135.425 225.15C135.175 227.65 135.175 227.65 134.46 228.364C134.354 229.107 134.248 229.85 134.139 230.615C133.817 232.865 133.817 232.865 133.175 233.508C132.827 235.414 132.554 237.327 132.273 239.244C131.91 241.115 131.372 242.699 130.603 244.438C134.57 244.226 137.961 243.832 141.623 242.273C143.559 241.614 145.292 241.739 147.319 241.866C147.319 241.442 147.319 241.017 147.319 240.58C149.865 240.58 152.411 240.58 155.034 240.58C155.034 242.914 155.034 245.248 155.034 247.652C154.61 247.652 154.185 247.652 153.748 247.652C153.748 249.137 153.748 250.623 153.748 252.153C153.324 252.153 152.9 252.153 152.462 252.153C152.462 253.426 152.462 254.699 152.462 256.01C152.038 256.01 151.614 256.01 151.177 256.01C151.216 256.567 151.256 257.124 151.297 257.698C151.159 260.185 150.37 261.525 149.248 263.725C149.03 265.225 148.815 266.725 148.605 268.226C148.168 269.286 147.728 270.346 147.249 271.388C145.385 275.744 144.064 280.374 142.818 284.942C142.394 284.942 141.97 284.942 141.533 284.942C141.533 286.215 141.533 287.488 141.533 288.8C141.108 288.8 140.684 288.8 140.247 288.8C140.247 290.073 140.247 291.346 140.247 292.657C139.822 292.657 139.398 292.657 138.961 292.657C138.876 293.091 138.79 293.524 138.702 293.971C138.257 296.175 137.786 298.374 137.313 300.573C137.14 301.38 136.967 302.186 136.788 303.017C136.657 303.629 136.525 304.242 136.389 304.873C135.965 304.873 135.54 304.873 135.103 304.873C135.156 305.589 135.209 306.305 135.264 307.043C135.283 310.522 133.916 313.316 132.532 316.446C132.319 317.082 132.107 317.719 131.889 318.374C131.464 318.374 131.04 318.374 130.603 318.374C130.603 319.647 130.603 320.92 130.603 322.232C130.178 322.232 129.754 322.232 129.317 322.232C129.317 323.293 129.317 324.354 129.317 325.447C128.893 325.447 128.468 325.447 128.031 325.447C128.031 325.871 128.031 326.295 128.031 326.732C126.758 326.732 125.485 326.732 124.174 326.732C124.174 326.308 124.174 325.884 124.174 325.447C123.537 325.447 122.901 325.447 122.245 325.447C122.245 325.022 122.245 324.598 122.245 324.161C121.834 323.988 121.423 323.816 120.999 323.638C119.673 322.875 119.673 322.875 119.03 320.946C118.606 320.946 118.181 320.946 117.744 320.946C117.744 320.522 117.744 320.097 117.744 319.66C116.471 319.024 116.471 319.024 115.173 318.374C115.173 317.95 115.173 317.526 115.173 317.088C114.635 316.87 114.635 316.87 114.088 316.646C112.173 315.56 110.906 314.18 109.386 312.588C109.036 312.251 108.685 311.913 108.324 311.566C107.368 310.646 106.445 309.69 105.529 308.73C105.529 308.306 105.529 307.882 105.529 307.445C105.104 307.445 104.68 307.445 104.243 307.445C104.243 307.02 104.243 306.596 104.243 306.159C103.818 306.159 103.394 306.159 102.957 306.159C102.957 305.734 102.957 305.31 102.957 304.873C102.533 304.873 102.108 304.873 101.671 304.873C101.671 304.449 101.671 304.024 101.671 303.587C100.61 303.163 99.5494 302.738 98.4564 302.301C98.4564 301.877 98.4564 301.452 98.4564 301.015C98.032 301.015 97.6077 301.015 97.1705 301.015C97.1705 300.591 97.1705 300.167 97.1705 299.729C96.7462 299.729 96.3219 299.729 95.8847 299.729C95.8847 299.305 95.8847 298.881 95.8847 298.444C95.4603 298.444 95.036 298.444 94.5988 298.444C94.5988 298.019 94.5988 297.595 94.5988 297.158C94.1745 297.158 93.7501 297.158 93.3129 297.158C93.3129 296.521 93.3129 295.885 93.3129 295.229C92.8886 295.229 92.4643 295.229 92.0271 295.229C92.0271 294.805 92.0271 294.38 92.0271 293.943C91.6028 293.943 91.1784 293.943 90.7412 293.943C90.7412 293.519 90.7412 293.094 90.7412 292.657C89.8926 292.233 89.0439 291.809 88.1695 291.371C88.1695 290.947 88.1695 290.523 88.1695 290.085C87.785 289.913 87.4004 289.741 87.0042 289.563C85.5861 288.793 84.6747 288.128 83.669 286.871C83.669 286.234 83.669 285.598 83.669 284.942C82.8204 284.518 81.9717 284.093 81.0973 283.656C81.0973 283.232 81.0973 282.808 81.0973 282.37C80.673 282.37 80.2486 282.37 79.8115 282.37C79.8115 281.946 79.8115 281.522 79.8115 281.084C78.9628 280.872 78.1141 280.66 77.2397 280.442C77.2397 280.017 77.2397 279.593 77.2397 279.156C76.8154 279.156 76.3911 279.156 75.9539 279.156C75.9539 278.731 75.9539 278.307 75.9539 277.87C75.5295 277.87 75.1052 277.87 74.668 277.87C74.668 277.446 74.668 277.021 74.668 276.584C74.2901 276.416 73.9122 276.248 73.5228 276.074C70.1046 274.215 67.2588 270.712 65.0241 267.583C65.0241 267.159 65.0241 266.734 65.0241 266.297C64.3876 266.085 63.7511 265.873 63.0953 265.654C63.0953 265.23 63.0953 264.806 63.0953 264.368C62.671 264.368 62.2466 264.368 61.8095 264.368C60.5236 262.44 60.5236 262.44 60.6843 260.792C61.1665 259.225 61.1665 259.225 62.4524 257.939C64.1808 257.766 65.8544 257.883 67.5958 257.939C67.5958 257.515 67.5958 257.09 67.5958 256.653C68.3773 256.614 69.1589 256.575 69.9641 256.535C70.9829 256.481 72.0017 256.426 73.0205 256.372C73.5364 256.347 74.0523 256.321 74.5839 256.295C77.0805 256.393 77.0805 256.393 79.1685 255.367C80.1453 255.321 81.1241 255.313 82.1019 255.327C82.6331 255.333 83.1644 255.339 83.7117 255.345C84.122 255.352 84.5322 255.36 84.9549 255.367C84.9515 254.962 84.9481 254.556 84.9447 254.138C84.9314 252.311 84.923 250.484 84.9147 248.657C84.9093 248.018 84.9039 247.38 84.8984 246.722C84.8963 246.115 84.8942 245.508 84.8921 244.882C84.8887 244.32 84.8854 243.758 84.8819 243.178C84.9549 241.866 84.9549 241.866 85.5978 241.223C85.7338 239.412 85.8397 237.611 85.9193 235.798C86.1543 230.466 86.1543 230.466 86.8837 229.007C87.0816 227.509 87.2109 226.01 87.3458 224.504C87.5266 223.221 87.5266 223.221 88.1695 222.578C88.3938 221.7 88.5901 220.814 88.7723 219.926C89.3225 217.34 89.9867 214.824 90.7412 212.291C91.1656 212.291 91.5899 212.291 92.0271 212.291C92.0271 211.018 92.0271 209.745 92.0271 208.434C92.4514 208.434 92.8758 208.434 93.3129 208.434C93.3129 206.948 93.3129 205.463 93.3129 203.933C93.7373 203.933 94.1616 203.933 94.5988 203.933C94.5988 203.084 94.5988 202.236 94.5988 201.361C95.0231 201.361 95.4475 201.361 95.8847 201.361C95.8847 200.088 95.8847 198.815 95.8847 197.504C96.309 197.504 96.7333 197.504 97.1705 197.504C97.1705 196.655 97.1705 195.806 97.1705 194.932C97.5949 194.932 98.0192 194.932 98.4564 194.932C98.5219 194.485 98.5873 194.039 98.6548 193.578C99.1746 191.402 100.042 189.645 101.068 187.659C101.597 186.628 101.597 186.628 102.136 185.577C102.407 185.057 102.678 184.538 102.957 184.002C103.381 184.002 103.806 184.002 104.243 184.002C104.243 183.366 104.243 182.729 104.243 182.074C104.667 182.074 105.091 182.074 105.529 182.074C105.529 181.225 105.529 180.376 105.529 179.502C105.953 179.502 106.377 179.502 106.814 179.502C106.814 179.077 106.814 178.653 106.814 178.216C107.239 178.216 107.663 178.216 108.1 178.216C108.1 177.367 108.1 176.519 108.1 175.644C108.525 175.644 108.949 175.644 109.386 175.644C109.386 175.22 109.386 174.796 109.386 174.358C109.81 174.358 110.235 174.358 110.672 174.358C110.672 173.934 110.672 173.51 110.672 173.073C111.096 173.073 111.521 173.073 111.958 173.073C112.025 172.698 112.092 172.323 112.161 171.937C112.667 170.284 113.357 169.386 114.489 168.09C114.827 167.695 115.164 167.301 115.512 166.894C116.458 166 116.458 166 117.744 166C117.744 165.152 117.744 164.303 117.744 163.429C118.169 163.429 118.593 163.429 119.03 163.429C119.03 163.004 119.03 162.58 119.03 162.143C119.454 162.143 119.879 162.143 120.316 162.143C120.316 161.718 120.316 161.294 120.316 160.857C120.74 160.857 121.165 160.857 121.602 160.857C121.602 160.433 121.602 160.008 121.602 159.571C122.45 159.571 123.299 159.571 124.174 159.571C124.174 159.147 124.174 158.722 124.174 158.285Z" fill="white"/>
<path d="M282.977 178.216C284.462 178.216 285.947 178.216 287.477 178.216C287.477 178.64 287.477 179.064 287.477 179.502C287.822 179.648 288.167 179.793 288.522 179.944C291.87 181.794 294.44 184.535 297.121 187.217C297.758 187.535 297.758 187.535 298.407 187.86C298.407 188.284 298.407 188.708 298.407 189.146C298.832 189.146 299.256 189.146 299.693 189.146C299.693 189.57 299.693 189.994 299.693 190.431C300.117 190.431 300.542 190.431 300.979 190.431C300.979 191.068 300.979 191.704 300.979 192.36C301.403 192.36 301.828 192.36 302.265 192.36C305.479 195.881 305.479 195.881 305.479 197.504C305.904 197.504 306.328 197.504 306.765 197.504C306.765 197.928 306.765 198.352 306.765 198.79C307.19 198.79 307.614 198.79 308.051 198.79C308.051 199.214 308.051 199.638 308.051 200.075C308.475 200.075 308.9 200.075 309.337 200.075C309.337 200.5 309.337 200.924 309.337 201.361C309.761 201.361 310.186 201.361 310.623 201.361C310.623 201.786 310.623 202.21 310.623 202.647C311.047 202.647 311.471 202.647 311.909 202.647C311.909 203.071 311.909 203.496 311.909 203.933C312.333 203.933 312.757 203.933 313.195 203.933C313.195 204.357 313.195 204.782 313.195 205.219C313.619 205.219 314.043 205.219 314.48 205.219C314.48 205.643 314.48 206.067 314.48 206.505C314.865 206.677 315.25 206.849 315.646 207.027C317.051 207.79 317.961 208.495 318.981 209.719C318.981 210.144 318.981 210.568 318.981 211.005C319.405 211.005 319.83 211.005 320.267 211.005C320.267 211.43 320.267 211.854 320.267 212.291C320.691 212.291 321.115 212.291 321.553 212.291C321.553 212.715 321.553 213.14 321.553 213.577C321.977 213.577 322.401 213.577 322.838 213.577C322.838 214.001 322.838 214.426 322.838 214.863C323.263 214.863 323.687 214.863 324.124 214.863C324.124 215.287 324.124 215.711 324.124 216.149C324.549 216.149 324.973 216.149 325.41 216.149C325.41 216.573 325.41 216.997 325.41 217.434C325.835 217.434 326.259 217.434 326.696 217.434C326.696 217.859 326.696 218.283 326.696 218.72C327.081 218.893 327.465 219.065 327.861 219.243C329.267 220.006 330.176 220.711 331.197 221.935C331.197 222.359 331.197 222.784 331.197 223.221C331.621 223.221 332.045 223.221 332.482 223.221C332.482 223.645 332.482 224.069 332.482 224.507C332.907 224.507 333.331 224.507 333.768 224.507C333.768 224.931 333.768 225.355 333.768 225.793C334.193 225.793 334.617 225.793 335.054 225.793C335.054 226.217 335.054 226.641 335.054 227.078C335.478 227.078 335.903 227.078 336.34 227.078C336.34 227.503 336.34 227.927 336.34 228.364C336.764 228.364 337.189 228.364 337.626 228.364C337.626 228.789 337.626 229.213 337.626 229.65C338.05 229.65 338.474 229.65 338.912 229.65C338.912 230.074 338.912 230.499 338.912 230.936C339.336 230.936 339.76 230.936 340.198 230.936C340.198 231.36 340.198 231.785 340.198 232.222C340.609 232.394 341.02 232.567 341.443 232.744C342.769 233.508 342.769 233.508 343.412 235.436C343.837 235.436 344.261 235.436 344.698 235.436C345.984 237.365 345.984 237.365 345.984 239.294C346.408 239.294 346.833 239.294 347.27 239.294C347.27 239.718 347.27 240.143 347.27 240.58C347.694 240.58 348.118 240.58 348.556 240.58C348.349 242.492 348.156 243.533 346.828 244.96C344.955 245.921 343.56 245.865 341.483 245.723C341.483 246.148 341.483 246.572 341.483 247.009C340.165 247.156 338.846 247.302 337.528 247.449C336.333 247.536 336.333 247.536 335.697 248.295C334.039 248.502 332.38 248.625 330.714 248.757C329.289 248.785 329.289 248.785 328.625 249.581C327.554 249.607 326.481 249.608 325.41 249.581C325.414 250.006 325.417 250.431 325.42 250.869C325.434 252.784 325.442 254.698 325.45 256.613C325.456 257.282 325.461 257.951 325.467 258.641C325.469 259.277 325.471 259.913 325.473 260.568C325.476 261.158 325.48 261.747 325.483 262.354C325.41 263.725 325.41 263.725 324.767 264.368C324.632 266.192 324.525 268.007 324.446 269.833C324.211 275.211 324.211 275.211 323.481 275.941C323.348 277.01 323.245 278.082 323.16 279.156C322.91 282.299 322.91 282.299 322.196 283.013C322.076 283.988 322.076 283.988 321.954 284.982C321.58 287.341 320.978 289.206 320.106 291.401C319.384 293.281 318.887 295.22 318.338 297.158C317.498 299.735 316.635 302.305 315.766 304.873C315.342 304.873 314.918 304.873 314.48 304.873C314.388 305.377 314.295 305.881 314.199 306.4C313.837 308.087 313.837 308.087 313.195 309.373C312.77 309.373 312.346 309.373 311.909 309.373C311.909 310.222 311.909 311.071 311.909 311.945C311.484 311.945 311.06 311.945 310.623 311.945C310.623 312.794 310.623 313.642 310.623 314.517C310.198 314.517 309.774 314.517 309.337 314.517C309.337 315.365 309.337 316.214 309.337 317.088C308.913 317.088 308.488 317.088 308.051 317.088C307.998 317.446 307.945 317.804 307.89 318.173C307.408 319.66 307.408 319.66 306.243 321.107C304.53 323.26 303.423 325.535 302.265 328.018C301.84 328.018 301.416 328.018 300.979 328.018C300.979 328.442 300.979 328.867 300.979 329.304C300.555 329.304 300.13 329.304 299.693 329.304C299.693 329.728 299.693 330.153 299.693 330.59C299.269 330.59 298.844 330.59 298.407 330.59C298.407 331.439 298.407 332.287 298.407 333.162C297.983 333.162 297.559 333.162 297.121 333.162C296.936 333.546 296.75 333.931 296.559 334.327C295.835 335.733 295.835 335.733 294.55 337.662C294.125 337.662 293.701 337.662 293.264 337.662C293.224 338.033 293.184 338.405 293.143 338.787C292.383 340.893 291.268 341.592 289.406 342.806C287.264 343.057 287.264 343.057 285.026 342.966C284.28 342.943 283.533 342.92 282.763 342.896C282.197 342.866 281.631 342.836 281.048 342.806C281.048 342.381 281.048 341.957 281.048 341.52C280.199 341.52 279.351 341.52 278.476 341.52C278.476 341.095 278.476 340.671 278.476 340.234C277.628 340.234 276.779 340.234 275.905 340.234C275.905 339.809 275.905 339.385 275.905 338.948C274.632 338.948 273.359 338.948 272.047 338.948C272.047 338.524 272.047 338.099 272.047 337.662C271.608 337.587 271.169 337.511 270.716 337.434C265.26 336.233 260.09 334.129 255.331 331.233C253.872 330.744 253.872 330.744 252.759 330.59C252.759 330.166 252.759 329.741 252.759 329.304C251.486 329.304 250.213 329.304 248.902 329.304C248.902 328.88 248.902 328.455 248.902 328.018C248.186 327.919 248.186 327.919 247.455 327.817C245.514 327.332 244.504 326.886 243.115 325.446C242.714 323.919 242.714 323.919 243.115 322.232C244.924 320.424 244.924 320.424 246.973 319.017C247.609 319.017 248.246 319.017 248.902 319.017C248.902 318.593 248.902 318.168 248.902 317.731C249.326 317.731 249.75 317.731 250.188 317.731C250.188 317.307 250.188 316.883 250.188 316.445C250.612 316.445 251.036 316.445 251.473 316.445C251.473 316.021 251.473 315.597 251.473 315.16C251.898 315.16 252.322 315.16 252.759 315.16C252.759 314.735 252.759 314.311 252.759 313.874C253.184 313.874 253.608 313.874 254.045 313.874C254.045 313.449 254.045 313.025 254.045 312.588C256.271 310.659 256.271 310.659 257.903 310.659C257.903 310.235 257.903 309.81 257.903 309.373C258.407 309.241 258.91 309.108 259.43 308.971C261.316 308.212 261.316 308.212 261.961 306.078C262.107 305.468 262.253 304.858 262.403 304.23C262.828 304.23 263.252 304.23 263.689 304.23C263.689 303.805 263.689 303.381 263.689 302.944C264.113 302.944 264.538 302.944 264.975 302.944C265.231 302.422 265.231 302.422 265.492 301.889C266.383 300.131 267.323 298.404 268.27 296.675C268.616 296.042 268.963 295.409 269.32 294.757C269.715 294.036 269.715 294.036 270.118 293.3C270.543 293.3 270.967 293.3 271.404 293.3C271.404 292.451 271.404 291.603 271.404 290.728C271.829 290.728 272.253 290.728 272.69 290.728C272.902 289.667 273.114 288.607 273.333 287.514C273.757 287.514 274.182 287.514 274.619 287.514C274.619 286.241 274.619 284.968 274.619 283.656C275.043 283.656 275.467 283.656 275.905 283.656C275.905 281.959 275.905 280.261 275.905 278.513C276.329 278.513 276.753 278.513 277.191 278.513C277.177 277.677 277.164 276.842 277.15 275.981C277.137 275.111 277.145 274.239 277.191 273.369C277.403 273.157 277.615 272.945 277.833 272.726C277.967 271.658 278.07 270.585 278.155 269.512C278.405 266.368 278.405 266.368 279.119 265.654C279.166 264.57 279.173 263.484 279.16 262.399C279.154 261.808 279.148 261.217 279.142 260.609C279.134 260.152 279.127 259.695 279.119 259.225C278.061 259.315 277.003 259.41 275.945 259.506C275.356 259.558 274.766 259.611 274.159 259.664C272.715 259.714 272.715 259.714 272.047 260.511C270.389 260.718 268.73 260.84 267.064 260.973C265.639 261.001 265.639 261.001 264.975 261.797C263.569 261.843 262.162 261.85 260.756 261.837C259.601 261.828 259.601 261.828 258.423 261.819C257.827 261.812 257.231 261.804 256.617 261.797C256.617 259.675 256.617 257.553 256.617 255.367C257.041 255.367 257.466 255.367 257.903 255.367C257.969 254.824 258.035 254.28 258.104 253.72C258.589 251.291 259.501 249.281 260.474 247.009C260.73 245.731 260.96 244.446 261.117 243.152C261.542 243.152 261.966 243.152 262.403 243.152C262.403 241.454 262.403 239.757 262.403 238.008C262.828 238.008 263.252 238.008 263.689 238.008C263.649 237.464 263.609 236.921 263.568 236.361C263.71 233.759 264.561 232.018 265.618 229.65C265.873 228.372 266.103 227.087 266.261 225.793C266.685 225.793 267.109 225.793 267.547 225.793C267.547 224.52 267.547 223.247 267.547 221.935C267.971 221.935 268.395 221.935 268.832 221.935C268.806 221.272 268.779 220.609 268.752 219.926C268.83 217.519 269.25 215.803 270.118 213.577C270.543 213.577 270.967 213.577 271.404 213.577C271.364 213.153 271.325 212.728 271.284 212.291C271.448 209.661 272.341 207.658 273.333 205.219C273.757 205.219 274.182 205.219 274.619 205.219C274.619 203.946 274.619 202.673 274.619 201.361C275.043 201.361 275.467 201.361 275.905 201.361C275.905 199.664 275.905 197.967 275.905 196.218C276.329 196.218 276.753 196.218 277.191 196.218C277.151 195.674 277.111 195.13 277.07 194.57C277.212 191.969 278.062 190.227 279.119 187.86C279.375 186.581 279.604 185.296 279.762 184.002C280.187 184.002 280.611 184.002 281.048 184.002C281.167 183.286 281.167 183.286 281.289 182.556C281.662 180.915 282.165 179.677 282.977 178.216Z" fill="white"/>
<path d="M204.14 213.514C205.037 213.518 205.933 213.526 206.83 213.536C207.516 213.541 207.516 213.541 208.215 213.545C209.347 213.553 210.48 213.564 211.612 213.576C211.612 214.001 211.612 214.425 211.612 214.862C212.024 214.84 212.436 214.818 212.86 214.795C216.689 214.675 219.126 215.083 222.542 216.791C223.392 217.031 224.247 217.261 225.113 217.434C225.113 217.858 225.113 218.283 225.113 218.72C225.75 218.72 226.386 218.72 227.042 218.72C227.042 219.144 227.042 219.569 227.042 220.006C227.466 220.006 227.891 220.006 228.328 220.006C229.429 221.047 230.496 222.125 231.543 223.22C232.139 223.777 232.736 224.334 233.351 224.908C234.757 226.435 234.757 226.435 234.757 228.364C235.142 228.51 235.526 228.656 235.923 228.806C238.531 230.371 239.629 233.264 240.544 236.079C240.624 237.887 240.624 237.887 240.544 239.294C240.968 239.294 241.392 239.294 241.829 239.294C241.868 239.696 241.907 240.099 241.947 240.514C242.001 241.04 242.055 241.565 242.111 242.106C242.163 242.629 242.215 243.151 242.269 243.689C242.402 245.107 242.402 245.107 243.115 246.366C243.178 247.994 243.205 249.6 243.196 251.228C243.198 251.677 243.201 252.126 243.203 252.588C243.197 255.928 243.197 255.928 242.472 256.653C242.386 257.508 242.324 258.366 242.271 259.224C241.641 265.191 238.336 270.581 234.757 275.298C234.333 275.298 233.909 275.298 233.471 275.298C233.471 275.722 233.471 276.146 233.471 276.583C233.047 276.583 232.623 276.583 232.186 276.583C232.186 277.008 232.186 277.432 232.186 277.869C231.761 277.869 231.337 277.869 230.9 277.869C230.9 278.294 230.9 278.718 230.9 279.155C230.051 279.367 229.202 279.579 228.328 279.798C228.328 280.222 228.328 280.647 228.328 281.084C227.904 281.084 227.479 281.084 227.042 281.084C227.042 281.508 227.042 281.933 227.042 282.37C225.113 283.656 225.113 283.656 222.542 283.656C222.542 284.08 222.542 284.504 222.542 284.942C221.693 284.942 220.844 284.942 219.97 284.942C219.97 285.366 219.97 285.79 219.97 286.227C218.485 286.227 217 286.227 215.469 286.227C215.469 286.652 215.469 287.076 215.469 287.513C212.287 287.513 209.104 287.513 205.825 287.513C205.825 287.938 205.825 288.362 205.825 288.799C202.643 288.375 199.46 287.95 196.182 287.513C196.182 287.089 196.182 286.665 196.182 286.227C195.664 286.28 195.147 286.333 194.614 286.388C191.564 286.174 189.248 285.005 186.538 283.656C186.538 283.231 186.538 282.807 186.538 282.37C186.14 282.317 185.742 282.264 185.332 282.209C183.966 281.727 183.966 281.727 183.363 280.481C182.762 278.985 182.762 278.985 180.992 278.352C180.237 278.113 180.237 278.113 179.465 277.869C179.465 277.445 179.465 277.021 179.465 276.583C179.041 276.583 178.617 276.583 178.18 276.583C176.894 274.655 176.894 274.655 176.894 272.726C176.469 272.726 176.045 272.726 175.608 272.726C173.036 268.547 173.036 268.547 173.036 265.654C172.612 265.654 172.187 265.654 171.75 265.654C171.626 265.049 171.502 264.444 171.374 263.82C171.206 263.02 171.039 262.219 170.866 261.394C170.702 260.604 170.538 259.813 170.369 258.998C169.868 256.68 169.868 256.68 169.126 254.593C167.426 249.414 169.021 244.371 170.464 239.294C170.889 239.294 171.313 239.294 171.75 239.294C171.75 238.021 171.75 236.748 171.75 235.436C172.175 235.436 172.599 235.436 173.036 235.436C173.175 234.68 173.175 234.68 173.317 233.909C173.679 232.221 173.679 232.221 174.322 230.936C174.746 230.936 175.171 230.936 175.608 230.936C175.747 230.339 175.747 230.339 175.889 229.73C176.251 228.364 176.251 228.364 176.894 227.078C177.318 227.078 177.742 227.078 178.18 227.078C178.18 226.654 178.18 226.229 178.18 225.792C178.604 225.792 179.028 225.792 179.465 225.792C179.465 225.368 179.465 224.943 179.465 224.506C180.526 224.082 181.587 223.658 182.68 223.22C182.68 222.796 182.68 222.372 182.68 221.935C183.104 221.935 183.529 221.935 183.966 221.935C184.178 221.298 184.39 220.662 184.609 220.006C185.245 220.006 185.882 220.006 186.538 220.006C186.538 219.581 186.538 219.157 186.538 218.72C186.962 218.72 187.386 218.72 187.823 218.72C187.823 218.296 187.823 217.871 187.823 217.434C188.28 217.302 188.737 217.17 189.207 217.035C189.798 216.861 190.389 216.688 190.998 216.51C191.587 216.338 192.176 216.167 192.784 215.99C194.214 215.64 194.214 215.64 194.896 214.862C196.554 214.655 198.213 214.533 199.878 214.4C201.944 214.142 201.787 213.582 204.14 213.514Z" fill="white"/>
</svg>
