<svg width="22" height="36" viewBox="0 0 22 36" fill="none" xmlns="http://www.w3.org/2000/svg">
<path d="M6.59897 4.5C6.59897 2.01797 8.57211 0 10.999 0C13.4259 0 15.3991 2.01797 15.3991 4.5C15.3991 6.98203 13.4259 9 10.999 9C8.57211 9 6.59897 6.98203 6.59897 4.5ZM9.89901 27V33.75C9.89901 34.9945 8.91587 36 7.69898 36C6.48209 36 5.49895 34.9945 5.49895 33.75V20.2359L4.06206 22.5703C3.4158 23.625 2.05454 23.9344 1.03015 23.2734C0.00576198 22.6125 -0.310492 21.2273 0.335765 20.1797L3.07892 15.7289C4.79082 12.9375 7.78148 11.25 10.999 11.25C14.2166 11.25 17.2072 12.9375 18.9191 15.7219L21.6623 20.1797C22.3085 21.2344 21.9991 22.6195 20.9748 23.2805C19.9504 23.9414 18.5891 23.625 17.9429 22.5773L16.4991 20.2359V33.75C16.4991 34.9945 15.5159 36 14.2991 36C13.0822 36 12.099 34.9945 12.099 33.75V27H9.89901Z" fill="#1E3A8A"/>
</svg>
