<svg width="29" height="35" viewBox="0 0 29 35" fill="none" xmlns="http://www.w3.org/2000/svg">
<path d="M10.2495 4.93999C10.2495 5.85233 10.6119 6.72731 11.2571 7.37243C11.9022 8.01755 12.7771 8.37998 13.6895 8.37998C14.6018 8.37998 15.4768 8.01755 16.1219 7.37243C16.767 6.72731 17.1294 5.85233 17.1294 4.93999C17.1294 4.02765 16.767 3.15267 16.1219 2.50755C15.4768 1.86243 14.6018 1.5 13.6895 1.5C12.7771 1.5 11.9022 1.86243 11.2571 2.50755C10.6119 3.15267 10.2495 4.02765 10.2495 4.93999Z" stroke="#1E3A8A" stroke-width="3" stroke-linecap="round" stroke-linejoin="round"/>
<path d="M13.6893 8.37964V22.1396H20.5692L27.4491 30.7396M13.6893 15.2596H22.2892M6.80943 16.1196C5.57706 16.63 4.4803 17.42 3.60585 18.4273C2.7314 19.4345 2.10323 20.6314 1.77101 21.9232C1.43879 23.2151 1.41162 24.5665 1.69165 25.8707C1.97169 27.1748 2.55124 28.396 3.3845 29.4376C4.21776 30.4791 5.28189 31.3126 6.49275 31.8721C7.70362 32.4316 9.02803 32.7017 10.3613 32.6612C11.6945 32.6207 13.0001 32.2705 14.1747 31.6385C15.3493 31.0065 16.3609 30.1099 17.1293 29.0196" stroke="#1E3A8A" stroke-width="3" stroke-linecap="round" stroke-linejoin="round"/>
</svg>
