<svg width="23" height="36" viewBox="0 0 23 36" fill="none" xmlns="http://www.w3.org/2000/svg">
<path d="M3.28571 36L0.657143 33.9907L4.92857 28.1721V19.2558C4.92857 18.3907 4.99702 17.4491 5.13393 16.4311C5.27083 15.413 5.47619 14.4709 5.75 13.6047L3.28571 14.9861V20.9302H0V13.0605L7.22857 8.87443C7.91309 8.48373 8.5089 8.18401 9.016 7.97526C9.5231 7.76652 9.99514 7.66159 10.4321 7.66047C11.1167 7.66047 11.7399 7.96075 12.3017 8.56131C12.8636 9.16187 13.5136 10.1034 14.2518 11.3861C15.128 12.893 15.922 14.0233 16.6339 14.7767C17.3458 15.5302 18.1125 16.1023 18.9339 16.493C19.2351 16.2698 19.4952 16.1163 19.7143 16.0326C19.9333 15.9488 20.1935 15.907 20.4946 15.907C21.1792 15.907 21.7679 16.1581 22.2607 16.6605C22.7536 17.1628 23 17.7488 23 18.4186V36H21.3571V18.4186C21.3571 18.1954 21.275 18 21.1107 17.8326C20.9464 17.6651 20.7548 17.5814 20.5357 17.5814C20.3167 17.5814 20.125 17.6651 19.9607 17.8326C19.7964 18 19.7143 18.1954 19.7143 18.4186V20.5116H18.0714V19.7163C16.5929 19.0744 15.4429 18.3561 14.6214 17.5613C13.8 16.7665 13.0744 15.6988 12.4446 14.3581C12.1435 15.1395 11.9041 16.0956 11.7267 17.2264C11.5493 18.3572 11.4874 19.4244 11.5411 20.4279L14.7857 25.1163V36H11.5V27.6279L8.58393 23.3581L8.21429 29.3023L3.28571 36ZM12.3214 6.69768C11.4179 6.69768 10.6446 6.37006 10.0017 5.7148C9.35881 5.05954 9.03681 4.27089 9.03571 3.34885C9.03462 2.4268 9.35662 1.63871 10.0017 0.984569C10.6468 0.33043 11.42 0.00224387 12.3214 1.13136e-05C13.2228 -0.00222124 13.9966 0.325965 14.6428 0.984569C15.289 1.64317 15.6104 2.43127 15.6071 3.34885C15.6039 4.26643 15.2824 5.05508 14.6428 5.7148C14.0032 6.37452 13.2294 6.70215 12.3214 6.69768Z" fill="#1E3A8A"/>
</svg>
