<svg width="37" height="40" viewBox="0 0 37 40" fill="none" xmlns="http://www.w3.org/2000/svg">
<path d="M25.3164 2.90891C23.5856 1.03303 21.1682 0 18.5 0C15.8176 0 13.3922 1.02678 11.6694 2.89105C9.92798 4.77586 9.07949 7.33746 9.27872 10.1035C9.67361 15.5606 13.8102 19.9999 18.5 19.9999C23.1898 19.9999 27.3193 15.5615 27.7204 10.1053C27.9223 7.36424 27.0685 4.80801 25.3164 2.90891ZM34.1534 39.9998H2.84658C2.43681 40.0051 2.03099 39.9187 1.65867 39.7468C1.28635 39.5749 0.956882 39.3218 0.69424 39.006C0.11613 38.3123 -0.116892 37.365 0.0556514 36.4069C0.806304 32.2266 3.14898 28.715 6.83109 26.2498C10.1023 24.0615 14.246 22.857 18.5 22.857C22.754 22.857 26.8977 24.0624 30.1689 26.2498C33.851 28.7141 36.1937 32.2257 36.9443 36.406C37.1169 37.3641 36.8839 38.3114 36.3058 39.0051C36.0432 39.3211 35.7138 39.5743 35.3414 39.7464C34.9691 39.9185 34.5633 40.005 34.1534 39.9998Z" fill="#1E3A8A"/>
</svg>
