<svg width="26" height="40" viewBox="0 0 26 40" fill="none" xmlns="http://www.w3.org/2000/svg">
<path d="M10.6364 40V35.2941H5.90909V30.5882H10.6364V25.6471C7.52424 25.098 4.97309 23.6173 2.98291 21.2047C0.992729 18.7922 -0.00157389 15.9984 1.86996e-06 12.8235C1.86996e-06 9.2549 1.27085 6.22588 3.81255 3.73647C6.35424 1.24706 9.41673 0.00157011 13 1.47984e-06C16.5833 -0.00156715 19.6465 1.24392 22.1898 3.73647C24.7331 6.22902 26.0031 9.25804 26 12.8235C26 16 25.0049 18.7945 23.0147 21.2071C21.0245 23.6196 18.4742 25.0996 15.3636 25.6471V30.5882H20.0909V35.2941H15.3636V40H10.6364ZM18.85 18.7647C20.4651 17.1569 21.2727 15.2157 21.2727 12.9412C21.2727 10.6667 20.4651 8.72549 18.85 7.11765C17.2348 5.50981 15.2848 4.70588 13 4.70588C10.7152 4.70588 8.76515 5.50981 7.15 7.11765C5.53485 8.72549 4.72727 10.6667 4.72727 12.9412C4.72727 15.2157 5.53485 17.1569 7.15 18.7647C8.76515 20.3726 10.7152 21.1765 13 21.1765C15.2848 21.1765 17.2348 20.3726 18.85 18.7647Z" fill="#1E3A8A"/>
</svg>
