<svg width="36" height="36" viewBox="0 0 36 36" fill="none" xmlns="http://www.w3.org/2000/svg">
<path d="M33.75 0H24.75C23.5125 0 22.5 1.0125 22.5 2.25C22.5 3.4875 23.5125 4.5 24.75 4.5H28.305L19.3725 13.4325C17.3925 12.06 14.985 11.25 12.375 11.25C5.535 11.25 0 16.785 0 23.625C0 30.465 5.535 36 12.375 36C19.215 36 24.75 30.465 24.75 23.625C24.75 21.015 23.94 18.6075 22.5675 16.605L31.5 7.695V11.25C31.5 12.4875 32.5125 13.5 33.75 13.5C34.9875 13.5 36 12.4875 36 11.25V2.25C36 1.0125 34.9875 0 33.75 0ZM12.375 31.5C8.0325 31.5 4.5 27.9675 4.5 23.625C4.5 19.2825 8.0325 15.75 12.375 15.75C16.7175 15.75 20.25 19.2825 20.25 23.625C20.25 27.9675 16.7175 31.5 12.375 31.5Z" fill="#1E3A8A"/>
</svg>
